<?xml version="1.0" encoding="utf-8"?>
<!-- Generator: Adobe Illustrator 25.2.0, SVG Export Plug-In . SVG Version: 6.00 Build 0)  -->
<svg version="1.1" id="Layer_1" xmlns="http://www.w3.org/2000/svg" xmlns:xlink="http://www.w3.org/1999/xlink" x="0px" y="0px"
	 viewBox="0 0 258.01 59.18" style="enable-background:new 0 0 258.01 59.18;" xml:space="preserve">
<style type="text/css">
	.st0{fill:url(#SVGID_1_);}
</style>
<linearGradient id="SVGID_1_" gradientUnits="userSpaceOnUse" x1="0" y1="30.1321" x2="258.0122" y2="30.1321">
	<stop  offset="0" style="stop-color:#2E3192"/>
	<stop  offset="0.0875" style="stop-color:#3A3092"/>
	<stop  offset="0.2452" style="stop-color:#562E91"/>
	<stop  offset="0.4549" style="stop-color:#7C2A90"/>
	<stop  offset="0.7088" style="stop-color:#AB218E"/>
	<stop  offset="1" style="stop-color:#EC008C"/>
</linearGradient>
<path class="st0" d="M0.38,10.03l1.69-0.16c0.1,0.57,0.31,0.98,0.62,1.25s0.73,0.4,1.26,0.4c0.56,0,0.98-0.12,1.26-0.35
	s0.42-0.51,0.42-0.83c0-0.2-0.06-0.38-0.18-0.52S5.12,9.55,4.83,9.44c-0.2-0.07-0.67-0.2-1.39-0.38C2.51,8.84,1.86,8.55,1.48,8.22
	C0.96,7.75,0.69,7.17,0.69,6.49c0-0.44,0.12-0.85,0.37-1.23s0.61-0.67,1.07-0.87s1.03-0.3,1.69-0.3c1.08,0,1.89,0.24,2.43,0.71
	s0.83,1.1,0.86,1.89L5.38,6.77C5.31,6.33,5.15,6.01,4.91,5.82S4.3,5.53,3.81,5.53c-0.5,0-0.9,0.1-1.18,0.31
	C2.44,5.97,2.35,6.15,2.35,6.37c0,0.2,0.09,0.38,0.26,0.52C2.83,7.08,3.36,7.27,4.2,7.47s1.47,0.41,1.87,0.62
	c0.4,0.21,0.72,0.5,0.95,0.87s0.34,0.83,0.34,1.37c0,0.49-0.14,0.95-0.41,1.38s-0.66,0.75-1.16,0.96s-1.12,0.31-1.87,0.31
	c-1.09,0-1.92-0.25-2.5-0.75S0.49,11,0.38,10.03z M12.42,10.85l1.64,0.28c-0.21,0.6-0.54,1.06-1,1.37s-1.02,0.47-1.71,0.47
	c-1.08,0-1.88-0.35-2.4-1.06c-0.41-0.57-0.62-1.28-0.62-2.14c0-1.03,0.27-1.84,0.81-2.42s1.22-0.88,2.04-0.88
	c0.93,0,1.66,0.31,2.19,0.92s0.79,1.55,0.77,2.81h-4.12c0.01,0.49,0.14,0.87,0.4,1.14s0.57,0.41,0.95,0.41
	c0.26,0,0.47-0.07,0.65-0.21S12.33,11.16,12.42,10.85z M12.51,9.19c-0.01-0.48-0.13-0.84-0.37-1.09c-0.23-0.25-0.52-0.37-0.86-0.37
	c-0.36,0-0.66,0.13-0.89,0.39c-0.23,0.26-0.35,0.62-0.35,1.07H12.51z M20.91,8.45l-1.62,0.29c-0.05-0.32-0.18-0.57-0.37-0.73
	c-0.19-0.16-0.44-0.25-0.75-0.25c-0.41,0-0.74,0.14-0.98,0.42c-0.24,0.28-0.37,0.76-0.37,1.42c0,0.74,0.12,1.26,0.37,1.56
	s0.58,0.46,1,0.46c0.31,0,0.57-0.09,0.77-0.27s0.34-0.48,0.42-0.92l1.62,0.28c-0.17,0.74-0.49,1.3-0.97,1.68s-1.12,0.57-1.92,0.57
	c-0.91,0-1.64-0.29-2.18-0.86s-0.81-1.37-0.81-2.38c0-1.03,0.27-1.83,0.81-2.4s1.28-0.86,2.2-0.86c0.76,0,1.36,0.16,1.81,0.49
	S20.72,7.78,20.91,8.45z M23.74,12.83h-1.65V6.61h1.53v0.88c0.26-0.42,0.5-0.69,0.71-0.83s0.45-0.2,0.71-0.2
	c0.38,0,0.74,0.1,1.08,0.31l-0.51,1.44c-0.28-0.18-0.54-0.27-0.77-0.27c-0.23,0-0.43,0.06-0.59,0.19s-0.29,0.36-0.38,0.69
	s-0.14,1.03-0.14,2.09V12.83z M30.43,10.85l1.64,0.28c-0.21,0.6-0.54,1.06-1,1.37s-1.02,0.47-1.71,0.47c-1.08,0-1.88-0.35-2.4-1.06
	c-0.41-0.57-0.62-1.28-0.62-2.14c0-1.03,0.27-1.84,0.81-2.42s1.22-0.88,2.04-0.88c0.93,0,1.66,0.31,2.19,0.92s0.79,1.55,0.77,2.81
	h-4.12c0.01,0.49,0.14,0.87,0.4,1.14s0.57,0.41,0.95,0.41c0.26,0,0.47-0.07,0.65-0.21S30.34,11.16,30.43,10.85z M30.53,9.19
	c-0.01-0.48-0.13-0.84-0.37-1.09c-0.23-0.25-0.52-0.37-0.86-0.37c-0.36,0-0.66,0.13-0.89,0.39c-0.23,0.26-0.35,0.62-0.35,1.07H30.53
	z M36.36,6.61v1.31h-1.12v2.51c0,0.51,0.01,0.8,0.03,0.89s0.07,0.15,0.15,0.21s0.17,0.08,0.28,0.08c0.15,0,0.37-0.05,0.66-0.16
	l0.14,1.28c-0.38,0.16-0.82,0.25-1.3,0.25c-0.3,0-0.56-0.05-0.8-0.15s-0.41-0.23-0.52-0.39s-0.19-0.37-0.23-0.64
	c-0.04-0.19-0.05-0.58-0.05-1.16V7.92h-0.76V6.61h0.76V5.37l1.65-0.96v2.2H36.36z M40.83,10.03l1.69-0.16
	c0.1,0.57,0.31,0.98,0.62,1.25s0.73,0.4,1.26,0.4c0.56,0,0.98-0.12,1.26-0.35s0.42-0.51,0.42-0.83c0-0.2-0.06-0.38-0.18-0.52
	s-0.33-0.27-0.62-0.37c-0.2-0.07-0.67-0.2-1.39-0.38c-0.93-0.23-1.58-0.51-1.96-0.85c-0.53-0.47-0.79-1.05-0.79-1.73
	c0-0.44,0.12-0.85,0.37-1.23s0.61-0.67,1.07-0.87s1.03-0.3,1.69-0.3c1.08,0,1.89,0.24,2.43,0.71s0.83,1.1,0.86,1.89l-1.73,0.08
	c-0.07-0.44-0.23-0.76-0.48-0.95s-0.61-0.29-1.1-0.29c-0.5,0-0.9,0.1-1.18,0.31c-0.18,0.13-0.28,0.31-0.28,0.53
	c0,0.2,0.09,0.38,0.26,0.52c0.22,0.18,0.75,0.38,1.59,0.57s1.47,0.41,1.87,0.62c0.4,0.21,0.72,0.5,0.95,0.87s0.34,0.83,0.34,1.37
	c0,0.49-0.14,0.95-0.41,1.38s-0.66,0.75-1.16,0.96s-1.12,0.31-1.87,0.31c-1.09,0-1.92-0.25-2.5-0.75S40.94,11,40.83,10.03z
	 M50.9,4.24V7.4c0.53-0.62,1.17-0.93,1.9-0.93c0.38,0,0.72,0.07,1.03,0.21S54.36,7,54.52,7.22s0.26,0.46,0.32,0.73
	c0.06,0.27,0.08,0.68,0.08,1.24v3.65h-1.65V9.54c0-0.65-0.03-1.07-0.09-1.24S53,7.99,52.85,7.88s-0.36-0.16-0.59-0.16
	c-0.27,0-0.52,0.07-0.73,0.2c-0.21,0.13-0.37,0.33-0.47,0.6S50.9,9.19,50.9,9.71v3.12h-1.65V4.24H50.9z M56.21,9.63
	c0-0.55,0.13-1.08,0.4-1.59s0.65-0.9,1.15-1.17s1.05-0.4,1.66-0.4c0.94,0,1.71,0.31,2.31,0.92s0.9,1.38,0.9,2.32
	c0,0.94-0.3,1.72-0.91,2.34s-1.37,0.93-2.29,0.93c-0.57,0-1.11-0.13-1.63-0.39s-0.91-0.64-1.18-1.13S56.21,10.35,56.21,9.63z
	 M57.89,9.72c0,0.62,0.15,1.09,0.44,1.42s0.65,0.49,1.08,0.49s0.79-0.16,1.08-0.49s0.44-0.8,0.44-1.43c0-0.61-0.15-1.08-0.44-1.41
	c-0.29-0.33-0.65-0.49-1.08-0.49s-0.79,0.16-1.08,0.49C58.04,8.63,57.89,9.1,57.89,9.72z M65.08,12.83l-1.97-6.22h1.6l1.17,4.08
	l1.07-4.08h1.59l1.04,4.08l1.19-4.08h1.62l-2,6.22H68.8l-1.07-4l-1.05,4H65.08z M77.01,5.76V4.24h1.65v1.52H77.01z M77.01,12.83
	V6.61h1.65v6.22H77.01z M79.76,11.05l1.65-0.25c0.07,0.32,0.21,0.56,0.43,0.73s0.52,0.25,0.9,0.25c0.43,0,0.75-0.08,0.96-0.23
	c0.14-0.11,0.22-0.26,0.22-0.44c0-0.12-0.04-0.23-0.12-0.31c-0.08-0.08-0.27-0.15-0.55-0.22c-1.33-0.29-2.17-0.56-2.53-0.8
	c-0.49-0.34-0.74-0.8-0.74-1.4c0-0.54,0.21-0.99,0.64-1.36s1.09-0.55,1.98-0.55c0.85,0,1.48,0.14,1.9,0.42s0.7,0.69,0.86,1.23
	L83.81,8.4c-0.07-0.24-0.19-0.43-0.38-0.56s-0.45-0.19-0.79-0.19c-0.43,0-0.74,0.06-0.93,0.18c-0.12,0.09-0.19,0.2-0.19,0.33
	c0,0.12,0.05,0.22,0.16,0.3c0.15,0.11,0.66,0.26,1.54,0.46s1.49,0.44,1.84,0.73c0.34,0.29,0.52,0.7,0.52,1.22
	c0,0.57-0.24,1.06-0.71,1.47s-1.18,0.62-2.12,0.62c-0.85,0-1.52-0.17-2.01-0.52S79.91,11.64,79.76,11.05z M92,8.51L90.5,8.24
	c0.17-0.6,0.46-1.05,0.87-1.34s1.02-0.43,1.83-0.43c0.73,0,1.28,0.09,1.64,0.26s0.61,0.39,0.76,0.66s0.22,0.76,0.22,1.47l-0.02,1.92
	c0,0.55,0.03,0.95,0.08,1.21s0.15,0.54,0.3,0.83h-1.63c-0.04-0.11-0.1-0.27-0.16-0.49c-0.03-0.1-0.05-0.16-0.06-0.19
	c-0.28,0.27-0.58,0.48-0.9,0.62s-0.66,0.21-1.03,0.21c-0.64,0-1.15-0.17-1.51-0.52s-0.55-0.79-0.55-1.32c0-0.35,0.08-0.67,0.25-0.94
	s0.4-0.49,0.71-0.63s0.74-0.27,1.31-0.38c0.77-0.14,1.3-0.28,1.6-0.4V8.61c0-0.32-0.08-0.54-0.23-0.68c-0.16-0.13-0.45-0.2-0.88-0.2
	c-0.29,0-0.52,0.06-0.69,0.17C92.23,8.01,92.1,8.22,92,8.51z M94.2,9.84c-0.21,0.07-0.54,0.15-1,0.25s-0.76,0.19-0.9,0.29
	c-0.21,0.15-0.32,0.35-0.32,0.58c0,0.23,0.09,0.43,0.26,0.6s0.39,0.25,0.66,0.25c0.3,0,0.58-0.1,0.85-0.29
	c0.2-0.15,0.33-0.33,0.39-0.54c0.04-0.14,0.06-0.41,0.06-0.8V9.84z M103.1,12.83h-1.65V9.65c0-0.67-0.04-1.11-0.11-1.3
	s-0.18-0.35-0.34-0.46s-0.35-0.16-0.57-0.16c-0.29,0-0.54,0.08-0.77,0.23c-0.23,0.16-0.38,0.36-0.47,0.62s-0.13,0.73-0.13,1.43v2.82
	h-1.65V6.61h1.53v0.91c0.54-0.7,1.23-1.05,2.05-1.05c0.36,0,0.7,0.07,1,0.2s0.53,0.3,0.68,0.5s0.26,0.43,0.32,0.69
	c0.06,0.26,0.09,0.63,0.09,1.11V12.83z M109.76,8.51l-1.49-0.27c0.17-0.6,0.46-1.05,0.87-1.34s1.02-0.43,1.83-0.43
	c0.73,0,1.28,0.09,1.64,0.26s0.61,0.39,0.76,0.66s0.22,0.76,0.22,1.47l-0.02,1.92c0,0.55,0.03,0.95,0.08,1.21s0.15,0.54,0.3,0.83
	h-1.63c-0.04-0.11-0.1-0.27-0.16-0.49c-0.03-0.1-0.05-0.16-0.06-0.19c-0.28,0.27-0.58,0.48-0.9,0.62s-0.66,0.21-1.03,0.21
	c-0.64,0-1.15-0.17-1.51-0.52s-0.55-0.79-0.55-1.32c0-0.35,0.08-0.67,0.25-0.94s0.4-0.49,0.71-0.63s0.74-0.27,1.31-0.38
	c0.77-0.14,1.3-0.28,1.6-0.4V8.61c0-0.32-0.08-0.54-0.23-0.68c-0.16-0.13-0.45-0.2-0.88-0.2c-0.29,0-0.52,0.06-0.69,0.17
	C109.99,8.01,109.86,8.22,109.76,8.51z M111.96,9.84c-0.21,0.07-0.54,0.15-1,0.25s-0.76,0.19-0.9,0.29
	c-0.21,0.15-0.32,0.35-0.32,0.58c0,0.23,0.09,0.43,0.26,0.6s0.39,0.25,0.66,0.25c0.3,0,0.58-0.1,0.85-0.29
	c0.2-0.15,0.33-0.33,0.39-0.54c0.04-0.14,0.06-0.41,0.06-0.8V9.84z M115.15,6.61h1.54v0.91c0.2-0.31,0.47-0.57,0.81-0.76
	s0.72-0.29,1.13-0.29c0.72,0,1.34,0.28,1.84,0.85s0.76,1.36,0.76,2.37c0,1.04-0.25,1.85-0.76,2.42s-1.12,0.86-1.85,0.86
	c-0.34,0-0.66-0.07-0.93-0.21s-0.57-0.37-0.88-0.7v3.13h-1.65V6.61z M116.78,9.61c0,0.7,0.14,1.22,0.42,1.55s0.62,0.5,1.01,0.5
	c0.38,0,0.7-0.15,0.96-0.46s0.38-0.81,0.38-1.51c0-0.65-0.13-1.14-0.39-1.45c-0.26-0.32-0.59-0.47-0.97-0.47
	c-0.4,0-0.74,0.16-1,0.47C116.91,8.54,116.78,9,116.78,9.61z M122.48,6.61h1.54v0.91c0.2-0.31,0.47-0.57,0.81-0.76
	s0.72-0.29,1.13-0.29c0.72,0,1.34,0.28,1.84,0.85s0.76,1.36,0.76,2.37c0,1.04-0.25,1.85-0.76,2.42s-1.12,0.86-1.85,0.86
	c-0.34,0-0.66-0.07-0.93-0.21s-0.57-0.37-0.88-0.7v3.13h-1.65V6.61z M124.11,9.61c0,0.7,0.14,1.22,0.42,1.55s0.62,0.5,1.01,0.5
	c0.38,0,0.7-0.15,0.96-0.46s0.38-0.81,0.38-1.51c0-0.65-0.13-1.14-0.39-1.45c-0.26-0.32-0.59-0.47-0.97-0.47
	c-0.4,0-0.74,0.16-1,0.47C124.24,8.54,124.11,9,124.11,9.61z M136.47,6.61v1.31h-1.12v2.51c0,0.51,0.01,0.8,0.03,0.89
	s0.07,0.15,0.15,0.21s0.17,0.08,0.28,0.08c0.15,0,0.37-0.05,0.66-0.16l0.14,1.28c-0.38,0.16-0.82,0.25-1.3,0.25
	c-0.3,0-0.56-0.05-0.8-0.15s-0.41-0.23-0.52-0.39s-0.19-0.37-0.23-0.64c-0.04-0.19-0.05-0.58-0.05-1.16V7.92h-0.76V6.61h0.76V5.37
	l1.65-0.96v2.2H136.47z M137.23,9.63c0-0.55,0.13-1.08,0.4-1.59c0.27-0.51,0.65-0.9,1.14-1.17s1.05-0.4,1.66-0.4
	c0.94,0,1.71,0.31,2.31,0.92s0.9,1.38,0.9,2.32c0,0.94-0.3,1.72-0.91,2.34s-1.37,0.93-2.29,0.93c-0.57,0-1.12-0.13-1.63-0.39
	s-0.91-0.64-1.18-1.13C137.36,10.95,137.23,10.35,137.23,9.63z M138.92,9.72c0,0.62,0.15,1.09,0.44,1.42s0.65,0.49,1.08,0.49
	s0.79-0.16,1.08-0.49s0.44-0.8,0.44-1.43c0-0.61-0.15-1.08-0.44-1.41c-0.29-0.33-0.65-0.49-1.08-0.49s-0.79,0.16-1.08,0.49
	C139.06,8.63,138.92,9.1,138.92,9.72z M154.12,8.45l-1.62,0.29c-0.05-0.32-0.18-0.57-0.37-0.73c-0.19-0.16-0.44-0.25-0.75-0.25
	c-0.41,0-0.74,0.14-0.98,0.42c-0.24,0.28-0.37,0.76-0.37,1.42c0,0.74,0.12,1.26,0.37,1.56s0.58,0.46,1,0.46
	c0.31,0,0.57-0.09,0.77-0.27s0.34-0.48,0.42-0.92l1.62,0.28c-0.17,0.74-0.49,1.3-0.97,1.68s-1.12,0.57-1.92,0.57
	c-0.91,0-1.64-0.29-2.18-0.86s-0.81-1.37-0.81-2.38c0-1.03,0.27-1.83,0.81-2.4s1.28-0.86,2.2-0.86c0.76,0,1.36,0.16,1.81,0.49
	S153.92,7.78,154.12,8.45z M154.98,9.63c0-0.55,0.13-1.08,0.4-1.59s0.65-0.9,1.15-1.17s1.05-0.4,1.66-0.4
	c0.94,0,1.71,0.31,2.31,0.92s0.9,1.38,0.9,2.32c0,0.94-0.3,1.72-0.91,2.34s-1.37,0.93-2.29,0.93c-0.57,0-1.11-0.13-1.63-0.39
	s-0.91-0.64-1.18-1.13S154.98,10.35,154.98,9.63z M156.67,9.72c0,0.62,0.15,1.09,0.44,1.42s0.65,0.49,1.08,0.49s0.79-0.16,1.08-0.49
	s0.44-0.8,0.44-1.43c0-0.61-0.15-1.08-0.44-1.41c-0.29-0.33-0.65-0.49-1.08-0.49s-0.79,0.16-1.08,0.49
	C156.82,8.63,156.67,9.1,156.67,9.72z M168.36,12.83h-1.65V9.65c0-0.67-0.04-1.11-0.11-1.3s-0.18-0.35-0.34-0.46
	s-0.35-0.16-0.57-0.16c-0.29,0-0.54,0.08-0.77,0.23c-0.23,0.16-0.38,0.36-0.47,0.62s-0.13,0.73-0.13,1.43v2.82h-1.65V6.61h1.53v0.91
	c0.54-0.7,1.23-1.05,2.05-1.05c0.36,0,0.7,0.07,1,0.2s0.53,0.3,0.68,0.5s0.26,0.43,0.32,0.69c0.06,0.26,0.09,0.63,0.09,1.11V12.83z
	 M175.69,12.83h-1.65V9.65c0-0.67-0.04-1.11-0.11-1.3s-0.18-0.35-0.34-0.46s-0.35-0.16-0.57-0.16c-0.29,0-0.54,0.08-0.77,0.23
	c-0.23,0.16-0.38,0.36-0.47,0.62s-0.13,0.73-0.13,1.43v2.82h-1.65V6.61h1.53v0.91c0.54-0.7,1.23-1.05,2.05-1.05
	c0.36,0,0.7,0.07,1,0.2s0.53,0.3,0.68,0.5s0.26,0.43,0.32,0.69c0.06,0.26,0.09,0.63,0.09,1.11V12.83z M180.96,10.85l1.64,0.28
	c-0.21,0.6-0.54,1.06-1,1.37s-1.02,0.47-1.71,0.47c-1.08,0-1.88-0.35-2.4-1.06c-0.41-0.57-0.62-1.28-0.62-2.14
	c0-1.03,0.27-1.84,0.81-2.42s1.22-0.88,2.04-0.88c0.93,0,1.66,0.31,2.19,0.92s0.79,1.55,0.77,2.81h-4.12
	c0.01,0.49,0.14,0.87,0.4,1.14s0.57,0.41,0.95,0.41c0.26,0,0.47-0.07,0.65-0.21S180.87,11.16,180.96,10.85z M181.05,9.19
	c-0.01-0.48-0.13-0.84-0.37-1.09c-0.23-0.25-0.52-0.37-0.86-0.37c-0.36,0-0.66,0.13-0.89,0.39c-0.23,0.26-0.35,0.62-0.35,1.07
	H181.05z M189.46,8.45l-1.62,0.29c-0.05-0.32-0.18-0.57-0.37-0.73c-0.19-0.16-0.44-0.25-0.75-0.25c-0.41,0-0.74,0.14-0.98,0.42
	c-0.24,0.28-0.37,0.76-0.37,1.42c0,0.74,0.12,1.26,0.37,1.56s0.58,0.46,1,0.46c0.31,0,0.57-0.09,0.77-0.27s0.34-0.48,0.42-0.92
	l1.62,0.28c-0.17,0.74-0.49,1.3-0.97,1.68s-1.12,0.57-1.92,0.57c-0.91,0-1.64-0.29-2.18-0.86s-0.81-1.37-0.81-2.38
	c0-1.03,0.27-1.83,0.81-2.4s1.28-0.86,2.2-0.86c0.76,0,1.36,0.16,1.81,0.49S189.26,7.78,189.46,8.45z M193.56,6.61v1.31h-1.12v2.51
	c0,0.51,0.01,0.8,0.03,0.89s0.07,0.15,0.15,0.21s0.17,0.08,0.28,0.08c0.15,0,0.37-0.05,0.66-0.16l0.14,1.28
	c-0.38,0.16-0.82,0.25-1.3,0.25c-0.3,0-0.56-0.05-0.8-0.15s-0.41-0.23-0.52-0.39s-0.19-0.37-0.23-0.64
	c-0.04-0.19-0.05-0.58-0.05-1.16V7.92h-0.76V6.61h0.76V5.37l1.65-0.96v2.2H193.56z M201.31,6.61v1.31h-1.12v2.51
	c0,0.51,0.01,0.8,0.03,0.89s0.07,0.15,0.15,0.21s0.17,0.08,0.28,0.08c0.15,0,0.37-0.05,0.66-0.16l0.14,1.28
	c-0.38,0.16-0.82,0.25-1.3,0.25c-0.3,0-0.56-0.05-0.8-0.15s-0.41-0.23-0.52-0.39s-0.19-0.37-0.23-0.64
	c-0.04-0.19-0.05-0.58-0.05-1.16V7.92h-0.76V6.61h0.76V5.37l1.65-0.96v2.2H201.31z M204.09,4.24V7.4c0.53-0.62,1.17-0.93,1.9-0.93
	c0.38,0,0.72,0.07,1.03,0.21s0.53,0.32,0.69,0.54s0.26,0.46,0.32,0.73c0.06,0.27,0.08,0.68,0.08,1.24v3.65h-1.65V9.54
	c0-0.65-0.03-1.07-0.09-1.24s-0.17-0.32-0.33-0.42s-0.36-0.16-0.59-0.16c-0.27,0-0.52,0.07-0.73,0.2c-0.21,0.13-0.37,0.33-0.47,0.6
	s-0.15,0.66-0.15,1.19v3.12h-1.65V4.24H204.09z M213.38,10.85l1.64,0.28c-0.21,0.6-0.54,1.06-1,1.37s-1.02,0.47-1.71,0.47
	c-1.08,0-1.88-0.35-2.4-1.06c-0.41-0.57-0.62-1.28-0.62-2.14c0-1.03,0.27-1.84,0.81-2.42s1.22-0.88,2.04-0.88
	c0.93,0,1.66,0.31,2.19,0.92s0.79,1.55,0.77,2.81h-4.12c0.01,0.49,0.14,0.87,0.4,1.14s0.57,0.41,0.95,0.41
	c0.26,0,0.47-0.07,0.65-0.21S213.29,11.16,213.38,10.85z M213.48,9.19c-0.01-0.48-0.13-0.84-0.37-1.09
	c-0.23-0.25-0.52-0.37-0.86-0.37c-0.36,0-0.66,0.13-0.89,0.39c-0.23,0.26-0.35,0.62-0.35,1.07H213.48z M220.16,6.61h1.54v0.91
	c0.2-0.31,0.47-0.57,0.81-0.76s0.72-0.29,1.13-0.29c0.72,0,1.34,0.28,1.84,0.85s0.76,1.36,0.76,2.37c0,1.04-0.25,1.85-0.76,2.42
	s-1.12,0.86-1.85,0.86c-0.34,0-0.66-0.07-0.93-0.21s-0.57-0.37-0.88-0.7v3.13h-1.65V6.61z M221.79,9.61c0,0.7,0.14,1.22,0.42,1.55
	s0.62,0.5,1.01,0.5c0.38,0,0.7-0.15,0.96-0.46s0.38-0.81,0.38-1.51c0-0.65-0.13-1.14-0.39-1.45c-0.26-0.32-0.59-0.47-0.97-0.47
	c-0.4,0-0.74,0.16-1,0.47C221.92,8.54,221.79,9,221.79,9.61z M231.14,10.85l1.64,0.28c-0.21,0.6-0.54,1.06-1,1.37
	s-1.02,0.47-1.71,0.47c-1.08,0-1.88-0.35-2.4-1.06c-0.41-0.57-0.62-1.28-0.62-2.14c0-1.03,0.27-1.84,0.81-2.42s1.22-0.88,2.04-0.88
	c0.93,0,1.66,0.31,2.19,0.92s0.79,1.55,0.77,2.81h-4.12c0.01,0.49,0.14,0.87,0.4,1.14s0.57,0.41,0.95,0.41
	c0.26,0,0.47-0.07,0.65-0.21S231.05,11.16,231.14,10.85z M231.23,9.19c-0.01-0.48-0.13-0.84-0.37-1.09
	c-0.23-0.25-0.52-0.37-0.86-0.37c-0.36,0-0.66,0.13-0.89,0.39c-0.23,0.26-0.35,0.62-0.35,1.07H231.23z M233.83,9.63
	c0-0.55,0.13-1.08,0.4-1.59s0.65-0.9,1.15-1.17s1.05-0.4,1.66-0.4c0.94,0,1.71,0.31,2.31,0.92s0.9,1.38,0.9,2.32
	c0,0.94-0.3,1.72-0.91,2.34s-1.37,0.93-2.29,0.93c-0.57,0-1.11-0.13-1.63-0.39s-0.91-0.64-1.18-1.13S233.83,10.35,233.83,9.63z
	 M235.52,9.72c0,0.62,0.15,1.09,0.44,1.42s0.65,0.49,1.08,0.49s0.79-0.16,1.08-0.49s0.44-0.8,0.44-1.43c0-0.61-0.15-1.08-0.44-1.41
	c-0.29-0.33-0.65-0.49-1.08-0.49s-0.79,0.16-1.08,0.49C235.66,8.63,235.52,9.1,235.52,9.72z M241.49,6.61h1.54v0.91
	c0.2-0.31,0.47-0.57,0.81-0.76s0.72-0.29,1.13-0.29c0.72,0,1.34,0.28,1.84,0.85s0.76,1.36,0.76,2.37c0,1.04-0.25,1.85-0.76,2.42
	s-1.12,0.86-1.85,0.86c-0.34,0-0.66-0.07-0.93-0.21s-0.57-0.37-0.88-0.7v3.13h-1.65V6.61z M243.12,9.61c0,0.7,0.14,1.22,0.42,1.55
	s0.62,0.5,1.01,0.5c0.38,0,0.7-0.15,0.96-0.46s0.38-0.81,0.38-1.51c0-0.65-0.13-1.14-0.39-1.45c-0.26-0.32-0.59-0.47-0.97-0.47
	c-0.4,0-0.74,0.16-1,0.47C243.26,8.54,243.12,9,243.12,9.61z M248.87,12.83V4.24h1.65v8.59H248.87z M255.81,10.85l1.64,0.28
	c-0.21,0.6-0.54,1.06-1,1.37s-1.02,0.47-1.71,0.47c-1.08,0-1.88-0.35-2.4-1.06c-0.41-0.57-0.62-1.28-0.62-2.14
	c0-1.03,0.27-1.84,0.81-2.42s1.22-0.88,2.04-0.88c0.93,0,1.66,0.31,2.19,0.92s0.79,1.55,0.77,2.81h-4.12
	c0.01,0.49,0.14,0.87,0.4,1.14s0.57,0.41,0.95,0.41c0.26,0,0.47-0.07,0.65-0.21S255.72,11.16,255.81,10.85z M255.9,9.19
	c-0.01-0.48-0.13-0.84-0.37-1.09c-0.23-0.25-0.52-0.37-0.86-0.37c-0.36,0-0.66,0.13-0.89,0.39c-0.23,0.26-0.35,0.62-0.35,1.07H255.9
	z M1.97,27.23L0,21.01h1.6l1.17,4.08l1.07-4.08h1.59l1.04,4.08l1.19-4.08h1.62l-2,6.22H5.7l-1.07-4l-1.05,4H1.97z M10.14,20.16
	v-1.52h1.65v1.52H10.14z M10.14,27.23v-6.22h1.65v6.22H10.14z M16.33,21.01v1.31h-1.12v2.51c0,0.51,0.01,0.8,0.03,0.89
	s0.07,0.15,0.15,0.21s0.17,0.08,0.28,0.08c0.15,0,0.37-0.05,0.66-0.16l0.14,1.28c-0.38,0.16-0.82,0.25-1.3,0.25
	c-0.3,0-0.56-0.05-0.8-0.15s-0.41-0.23-0.52-0.39s-0.19-0.37-0.23-0.64c-0.04-0.19-0.05-0.58-0.05-1.16v-2.71H12.8v-1.31h0.76v-1.24
	l1.65-0.96v2.2H16.33z M19.11,18.64v3.16c0.53-0.62,1.17-0.93,1.9-0.93c0.38,0,0.72,0.07,1.03,0.21s0.53,0.32,0.69,0.54
	s0.26,0.46,0.32,0.73s0.08,0.68,0.08,1.24v3.65h-1.65v-3.29c0-0.65-0.03-1.07-0.09-1.24s-0.17-0.32-0.33-0.42s-0.36-0.16-0.59-0.16
	c-0.27,0-0.52,0.07-0.73,0.2s-0.37,0.33-0.47,0.6s-0.15,0.66-0.15,1.19v3.12h-1.65v-8.59H19.11z M32.22,21.01v1.31h-1.12v2.51
	c0,0.51,0.01,0.8,0.03,0.89s0.07,0.15,0.15,0.21s0.17,0.08,0.28,0.08c0.15,0,0.37-0.05,0.66-0.16l0.14,1.28
	c-0.38,0.16-0.82,0.25-1.3,0.25c-0.3,0-0.56-0.05-0.8-0.15s-0.41-0.23-0.52-0.39s-0.19-0.37-0.23-0.64
	c-0.04-0.19-0.05-0.58-0.05-1.16v-2.71h-0.76v-1.31h0.76v-1.24l1.65-0.96v2.2H32.22z M35,18.64v3.16c0.53-0.62,1.17-0.93,1.9-0.93
	c0.38,0,0.72,0.07,1.03,0.21s0.53,0.32,0.69,0.54s0.26,0.46,0.32,0.73s0.08,0.68,0.08,1.24v3.65h-1.65v-3.29
	c0-0.65-0.03-1.07-0.09-1.24s-0.17-0.32-0.33-0.42s-0.36-0.16-0.59-0.16c-0.27,0-0.52,0.07-0.73,0.2s-0.37,0.33-0.47,0.6
	S35,23.59,35,24.11v3.12h-1.65v-8.59H35z M44.29,25.25l1.64,0.28c-0.21,0.6-0.54,1.06-1,1.37s-1.02,0.47-1.71,0.47
	c-1.08,0-1.88-0.35-2.4-1.06c-0.41-0.57-0.62-1.28-0.62-2.14c0-1.03,0.27-1.84,0.81-2.42s1.22-0.88,2.04-0.88
	c0.93,0,1.66,0.31,2.19,0.92s0.79,1.55,0.77,2.81H41.9c0.01,0.49,0.14,0.87,0.4,1.14s0.57,0.41,0.95,0.41
	c0.26,0,0.47-0.07,0.65-0.21S44.2,25.56,44.29,25.25z M44.39,23.59c-0.01-0.48-0.13-0.84-0.37-1.09s-0.52-0.37-0.86-0.37
	c-0.36,0-0.66,0.13-0.89,0.39s-0.35,0.62-0.35,1.07H44.39z M51.92,27.23v-8.59h1.65v8.59H51.92z M54.88,24.03
	c0-0.55,0.13-1.08,0.4-1.59s0.65-0.9,1.15-1.17s1.05-0.4,1.66-0.4c0.94,0,1.71,0.31,2.31,0.92s0.9,1.38,0.9,2.32
	c0,0.94-0.3,1.72-0.91,2.34s-1.37,0.93-2.29,0.93c-0.57,0-1.11-0.13-1.63-0.39s-0.91-0.64-1.18-1.13S54.88,24.75,54.88,24.03z
	 M56.56,24.12c0,0.62,0.15,1.09,0.44,1.42s0.65,0.49,1.08,0.49s0.79-0.16,1.08-0.49s0.44-0.8,0.44-1.43c0-0.61-0.15-1.08-0.44-1.41
	s-0.65-0.49-1.08-0.49S57.3,22.37,57,22.7S56.56,23.5,56.56,24.12z M68.01,22.85l-1.62,0.29c-0.05-0.32-0.18-0.57-0.37-0.73
	s-0.44-0.25-0.75-0.25c-0.41,0-0.74,0.14-0.98,0.42s-0.37,0.76-0.37,1.42c0,0.74,0.12,1.26,0.37,1.56s0.58,0.46,1,0.46
	c0.31,0,0.57-0.09,0.77-0.27s0.34-0.48,0.42-0.92l1.62,0.28c-0.17,0.74-0.49,1.3-0.97,1.68s-1.12,0.57-1.92,0.57
	c-0.91,0-1.64-0.29-2.18-0.86s-0.81-1.37-0.81-2.38c0-1.03,0.27-1.83,0.81-2.4s1.28-0.86,2.2-0.86c0.76,0,1.36,0.16,1.81,0.49
	S67.82,22.18,68.01,22.85z M70.49,22.91L69,22.64c0.17-0.6,0.46-1.05,0.87-1.34s1.02-0.43,1.83-0.43c0.73,0,1.28,0.09,1.64,0.26
	s0.61,0.39,0.76,0.66s0.22,0.76,0.22,1.47l-0.02,1.92c0,0.55,0.03,0.95,0.08,1.21s0.15,0.54,0.3,0.83h-1.63
	c-0.04-0.11-0.1-0.27-0.16-0.49c-0.03-0.1-0.05-0.16-0.06-0.19c-0.28,0.27-0.58,0.48-0.9,0.62s-0.66,0.21-1.03,0.21
	c-0.64,0-1.15-0.17-1.51-0.52s-0.55-0.79-0.55-1.32c0-0.35,0.08-0.67,0.25-0.94s0.4-0.49,0.71-0.63s0.74-0.27,1.31-0.38
	c0.77-0.14,1.3-0.28,1.6-0.4v-0.16c0-0.32-0.08-0.54-0.23-0.68s-0.45-0.2-0.88-0.2c-0.29,0-0.52,0.06-0.69,0.17
	S70.59,22.62,70.49,22.91z M72.7,24.24c-0.21,0.07-0.54,0.15-1,0.25s-0.76,0.19-0.9,0.29c-0.21,0.15-0.32,0.35-0.32,0.58
	c0,0.23,0.09,0.43,0.26,0.6s0.39,0.25,0.66,0.25c0.3,0,0.58-0.1,0.85-0.29c0.2-0.15,0.33-0.33,0.39-0.54
	c0.04-0.14,0.06-0.41,0.06-0.8V24.24z M75.94,27.23v-8.59h1.65v8.59H75.94z M83.71,21.01h1.52v0.85c0.54-0.66,1.19-0.99,1.94-0.99
	c0.4,0,0.74,0.08,1.04,0.25s0.53,0.41,0.72,0.74c0.27-0.33,0.57-0.58,0.88-0.74s0.65-0.25,1.01-0.25c0.46,0,0.84,0.09,1.16,0.28
	s0.55,0.46,0.71,0.82c0.11,0.27,0.17,0.7,0.17,1.29v3.98h-1.65v-3.56c0-0.62-0.06-1.02-0.17-1.2c-0.15-0.23-0.39-0.35-0.7-0.35
	c-0.23,0-0.45,0.07-0.65,0.21s-0.35,0.35-0.44,0.62s-0.13,0.7-0.13,1.29v2.99h-1.65v-3.41c0-0.61-0.03-1-0.09-1.17
	s-0.15-0.31-0.27-0.39s-0.29-0.13-0.5-0.13c-0.25,0-0.48,0.07-0.69,0.21s-0.35,0.33-0.44,0.59s-0.13,0.69-0.13,1.28v3.02h-1.65
	V21.01z M98.6,27.23V26.3c-0.23,0.33-0.52,0.59-0.89,0.79s-0.76,0.29-1.17,0.29c-0.42,0-0.79-0.09-1.12-0.28s-0.57-0.44-0.72-0.77
	s-0.22-0.79-0.22-1.38v-3.94h1.65v2.86c0,0.88,0.03,1.41,0.09,1.61s0.17,0.35,0.33,0.47s0.36,0.17,0.61,0.17
	c0.28,0,0.53-0.08,0.76-0.23s0.38-0.35,0.46-0.57s0.12-0.79,0.12-1.68v-2.62h1.65v6.22H98.6z M101.25,25.45l1.65-0.25
	c0.07,0.32,0.21,0.56,0.43,0.73s0.52,0.25,0.9,0.25c0.43,0,0.75-0.08,0.96-0.23c0.14-0.11,0.22-0.26,0.22-0.44
	c0-0.12-0.04-0.23-0.12-0.31c-0.08-0.08-0.27-0.15-0.55-0.22c-1.33-0.29-2.17-0.56-2.53-0.8c-0.49-0.34-0.74-0.8-0.74-1.4
	c0-0.54,0.21-0.99,0.64-1.36s1.09-0.55,1.98-0.55c0.85,0,1.48,0.14,1.9,0.42s0.7,0.69,0.86,1.23l-1.55,0.29
	c-0.07-0.24-0.19-0.43-0.38-0.56s-0.45-0.19-0.79-0.19c-0.43,0-0.74,0.06-0.93,0.18c-0.12,0.09-0.19,0.2-0.19,0.33
	c0,0.12,0.05,0.22,0.16,0.3c0.15,0.11,0.66,0.26,1.54,0.46s1.49,0.44,1.84,0.73c0.34,0.29,0.52,0.7,0.52,1.22
	c0,0.57-0.24,1.06-0.71,1.47s-1.18,0.62-2.12,0.62c-0.85,0-1.52-0.17-2.01-0.52S101.4,26.04,101.25,25.45z M108.5,20.16v-1.52h1.65
	v1.52H108.5z M108.5,27.23v-6.22h1.65v6.22H108.5z M117.26,22.85l-1.62,0.29c-0.05-0.32-0.18-0.57-0.37-0.73s-0.44-0.25-0.75-0.25
	c-0.41,0-0.74,0.14-0.98,0.42s-0.37,0.76-0.37,1.42c0,0.74,0.12,1.26,0.37,1.56s0.58,0.46,1,0.46c0.31,0,0.57-0.09,0.77-0.27
	s0.34-0.48,0.42-0.92l1.62,0.28c-0.17,0.74-0.49,1.3-0.97,1.68s-1.12,0.57-1.92,0.57c-0.91,0-1.64-0.29-2.18-0.86
	s-0.81-1.37-0.81-2.38c0-1.03,0.27-1.83,0.81-2.4s1.28-0.86,2.2-0.86c0.76,0,1.36,0.16,1.81,0.49S117.07,22.18,117.26,22.85z
	 M122.49,25.45l1.65-0.25c0.07,0.32,0.21,0.56,0.43,0.73s0.52,0.25,0.9,0.25c0.43,0,0.75-0.08,0.96-0.23
	c0.14-0.11,0.22-0.26,0.22-0.44c0-0.12-0.04-0.23-0.12-0.31c-0.08-0.08-0.27-0.15-0.55-0.22c-1.33-0.29-2.17-0.56-2.53-0.8
	c-0.49-0.34-0.74-0.8-0.74-1.4c0-0.54,0.21-0.99,0.64-1.36s1.09-0.55,1.98-0.55c0.85,0,1.48,0.14,1.9,0.42s0.7,0.69,0.86,1.23
	l-1.55,0.29c-0.07-0.24-0.19-0.43-0.38-0.56s-0.45-0.19-0.79-0.19c-0.43,0-0.74,0.06-0.93,0.18c-0.12,0.09-0.19,0.2-0.19,0.33
	c0,0.12,0.05,0.22,0.16,0.3c0.15,0.11,0.66,0.26,1.54,0.46s1.49,0.44,1.84,0.73c0.34,0.29,0.52,0.7,0.52,1.22
	c0,0.57-0.24,1.06-0.71,1.47s-1.18,0.62-2.12,0.62c-0.85,0-1.52-0.17-2.01-0.52S122.65,26.04,122.49,25.45z M135.17,22.85
	l-1.62,0.29c-0.05-0.32-0.18-0.57-0.37-0.73s-0.44-0.25-0.75-0.25c-0.41,0-0.74,0.14-0.98,0.42s-0.37,0.76-0.37,1.42
	c0,0.74,0.12,1.26,0.37,1.56s0.58,0.46,1,0.46c0.31,0,0.57-0.09,0.77-0.27s0.34-0.48,0.42-0.92l1.62,0.28
	c-0.17,0.74-0.49,1.3-0.97,1.68s-1.12,0.57-1.92,0.57c-0.91,0-1.64-0.29-2.18-0.86s-0.81-1.37-0.81-2.38c0-1.03,0.27-1.83,0.81-2.4
	s1.28-0.86,2.2-0.86c0.76,0,1.36,0.16,1.81,0.49S134.98,22.18,135.17,22.85z M140.02,25.25l1.64,0.28c-0.21,0.6-0.54,1.06-1,1.37
	s-1.02,0.47-1.71,0.47c-1.08,0-1.88-0.35-2.4-1.06c-0.41-0.57-0.62-1.28-0.62-2.14c0-1.03,0.27-1.84,0.81-2.42s1.22-0.88,2.04-0.88
	c0.93,0,1.66,0.31,2.19,0.92s0.79,1.55,0.77,2.81h-4.12c0.01,0.49,0.14,0.87,0.4,1.14s0.57,0.41,0.95,0.41
	c0.26,0,0.47-0.07,0.65-0.21S139.93,25.56,140.02,25.25z M140.12,23.59c-0.01-0.48-0.13-0.84-0.37-1.09s-0.52-0.37-0.86-0.37
	c-0.36,0-0.66,0.13-0.89,0.39s-0.35,0.62-0.35,1.07H140.12z M148.75,27.23h-1.65v-3.18c0-0.67-0.04-1.11-0.11-1.3
	s-0.18-0.35-0.34-0.46s-0.35-0.16-0.57-0.16c-0.29,0-0.54,0.08-0.77,0.23s-0.38,0.36-0.47,0.62s-0.13,0.73-0.13,1.43v2.82h-1.65
	v-6.22h1.53v0.91c0.54-0.7,1.23-1.05,2.05-1.05c0.36,0,0.7,0.07,1,0.2s0.53,0.3,0.68,0.5s0.26,0.43,0.32,0.69s0.09,0.63,0.09,1.11
	V27.23z M154.03,25.25l1.64,0.28c-0.21,0.6-0.54,1.06-1,1.37s-1.02,0.47-1.71,0.47c-1.08,0-1.88-0.35-2.4-1.06
	c-0.41-0.57-0.62-1.28-0.62-2.14c0-1.03,0.27-1.84,0.81-2.42s1.22-0.88,2.04-0.88c0.93,0,1.66,0.31,2.19,0.92s0.79,1.55,0.77,2.81
	h-4.12c0.01,0.49,0.14,0.87,0.4,1.14s0.57,0.41,0.95,0.41c0.26,0,0.47-0.07,0.65-0.21S153.94,25.56,154.03,25.25z M154.12,23.59
	c-0.01-0.48-0.13-0.84-0.37-1.09s-0.52-0.37-0.86-0.37c-0.36,0-0.66,0.13-0.89,0.39s-0.35,0.62-0.35,1.07H154.12z M157.1,27.23
	v-1.65h1.65v1.65H157.1z M164.95,27.23v-8.59h1.73v8.59H164.95z M173.99,27.23h-1.65v-3.18c0-0.67-0.04-1.11-0.11-1.3
	s-0.18-0.35-0.34-0.46s-0.35-0.16-0.57-0.16c-0.29,0-0.54,0.08-0.77,0.23s-0.38,0.36-0.47,0.62s-0.13,0.73-0.13,1.43v2.82h-1.65
	v-6.22h1.53v0.91c0.54-0.7,1.23-1.05,2.05-1.05c0.36,0,0.7,0.07,1,0.2s0.53,0.3,0.68,0.5s0.26,0.43,0.32,0.69s0.09,0.63,0.09,1.11
	V27.23z M178.51,21.01v1.31h-1.12v2.51c0,0.51,0.01,0.8,0.03,0.89s0.07,0.15,0.15,0.21s0.17,0.08,0.28,0.08
	c0.15,0,0.37-0.05,0.66-0.16l0.14,1.28c-0.38,0.16-0.82,0.25-1.3,0.25c-0.3,0-0.56-0.05-0.8-0.15s-0.41-0.23-0.52-0.39
	s-0.19-0.37-0.23-0.64c-0.04-0.19-0.05-0.58-0.05-1.16v-2.71h-0.76v-1.31h0.76v-1.24l1.65-0.96v2.2H178.51z M181.23,27.23h-1.65
	v-6.22h1.53v0.88c0.26-0.42,0.5-0.69,0.71-0.83s0.45-0.2,0.71-0.2c0.38,0,0.74,0.1,1.08,0.31l-0.51,1.44
	c-0.28-0.18-0.54-0.27-0.77-0.27c-0.23,0-0.43,0.06-0.59,0.19s-0.29,0.36-0.38,0.69s-0.14,1.03-0.14,2.09V27.23z M183.94,24.03
	c0-0.55,0.13-1.08,0.4-1.59s0.65-0.9,1.15-1.17s1.05-0.4,1.66-0.4c0.94,0,1.71,0.31,2.31,0.92s0.9,1.38,0.9,2.32
	c0,0.94-0.3,1.72-0.91,2.34s-1.37,0.93-2.29,0.93c-0.57,0-1.11-0.13-1.63-0.39s-0.91-0.64-1.18-1.13S183.94,24.75,183.94,24.03z
	 M185.63,24.12c0,0.62,0.15,1.09,0.44,1.42s0.65,0.49,1.08,0.49s0.79-0.16,1.08-0.49s0.44-0.8,0.44-1.43c0-0.61-0.15-1.08-0.44-1.41
	s-0.65-0.49-1.08-0.49s-0.79,0.16-1.08,0.49S185.63,23.5,185.63,24.12z M197.36,27.23h-1.53v-0.91c-0.25,0.36-0.55,0.62-0.9,0.79
	s-0.69,0.26-1.05,0.26c-0.71,0-1.33-0.29-1.84-0.86s-0.76-1.38-0.76-2.41c0-1.05,0.25-1.86,0.74-2.41s1.12-0.82,1.88-0.82
	c0.7,0,1.3,0.29,1.8,0.87v-3.09h1.65V27.23z M192.96,23.98c0,0.66,0.09,1.14,0.28,1.44c0.27,0.43,0.64,0.64,1.11,0.64
	c0.38,0,0.7-0.16,0.97-0.48s0.4-0.8,0.4-1.44c0-0.71-0.13-1.23-0.39-1.54s-0.59-0.47-0.99-0.47c-0.39,0-0.72,0.16-0.98,0.47
	S192.96,23.37,192.96,23.98z M203.08,27.23V26.3c-0.23,0.33-0.52,0.59-0.89,0.79s-0.76,0.29-1.17,0.29c-0.42,0-0.79-0.09-1.12-0.28
	s-0.57-0.44-0.72-0.77s-0.22-0.79-0.22-1.38v-3.94h1.65v2.86c0,0.88,0.03,1.41,0.09,1.61s0.17,0.35,0.33,0.47s0.36,0.17,0.61,0.17
	c0.28,0,0.53-0.08,0.76-0.23s0.38-0.35,0.46-0.57s0.12-0.79,0.12-1.68v-2.62h1.65v6.22H203.08z M211.74,22.85l-1.62,0.29
	c-0.05-0.32-0.18-0.57-0.37-0.73s-0.44-0.25-0.75-0.25c-0.41,0-0.74,0.14-0.98,0.42s-0.37,0.76-0.37,1.42
	c0,0.74,0.12,1.26,0.37,1.56s0.58,0.46,1,0.46c0.31,0,0.57-0.09,0.77-0.27s0.34-0.48,0.42-0.92l1.62,0.28
	c-0.17,0.74-0.49,1.3-0.97,1.68s-1.12,0.57-1.92,0.57c-0.91,0-1.64-0.29-2.18-0.86s-0.81-1.37-0.81-2.38c0-1.03,0.27-1.83,0.81-2.4
	s1.28-0.86,2.2-0.86c0.76,0,1.36,0.16,1.81,0.49S211.54,22.18,211.74,22.85z M212.99,20.16v-1.52h1.65v1.52H212.99z M212.99,27.23
	v-6.22h1.65v6.22H212.99z M221.98,27.23h-1.65v-3.18c0-0.67-0.04-1.11-0.11-1.3s-0.18-0.35-0.34-0.46s-0.35-0.16-0.57-0.16
	c-0.29,0-0.54,0.08-0.77,0.23s-0.38,0.36-0.47,0.62s-0.13,0.73-0.13,1.43v2.82h-1.65v-6.22h1.53v0.91c0.54-0.7,1.23-1.05,2.05-1.05
	c0.36,0,0.7,0.07,1,0.2s0.53,0.3,0.68,0.5s0.26,0.43,0.32,0.69s0.09,0.63,0.09,1.11V27.23z M223.5,27.64l1.88,0.23
	c0.03,0.22,0.1,0.37,0.22,0.45c0.16,0.12,0.4,0.18,0.74,0.18c0.43,0,0.75-0.06,0.97-0.19c0.14-0.09,0.25-0.22,0.33-0.42
	c0.05-0.14,0.08-0.39,0.08-0.76v-0.91c-0.49,0.67-1.11,1.01-1.86,1.01c-0.84,0-1.5-0.35-1.99-1.06c-0.38-0.56-0.57-1.25-0.57-2.09
	c0-1.04,0.25-1.84,0.75-2.39s1.13-0.83,1.87-0.83c0.77,0,1.4,0.34,1.9,1.01v-0.87h1.54v5.58c0,0.73-0.06,1.28-0.18,1.65
	s-0.29,0.65-0.51,0.86s-0.51,0.37-0.88,0.49s-0.83,0.18-1.39,0.18c-1.05,0-1.8-0.18-2.24-0.54s-0.66-0.82-0.66-1.37
	C223.49,27.78,223.49,27.72,223.5,27.64z M224.97,23.99c0,0.66,0.13,1.14,0.38,1.45s0.57,0.46,0.95,0.46c0.4,0,0.74-0.16,1.02-0.47
	s0.42-0.78,0.42-1.4c0-0.64-0.13-1.12-0.4-1.44s-0.6-0.47-1.01-0.47c-0.39,0-0.72,0.15-0.98,0.46S224.97,23.36,224.97,23.99z
	 M241.2,27.23h-1.65v-3.18c0-0.67-0.04-1.11-0.11-1.3s-0.18-0.35-0.34-0.46s-0.35-0.16-0.57-0.16c-0.29,0-0.54,0.08-0.77,0.23
	s-0.38,0.36-0.47,0.62s-0.13,0.73-0.13,1.43v2.82h-1.65v-6.22h1.53v0.91c0.54-0.7,1.23-1.05,2.05-1.05c0.36,0,0.7,0.07,1,0.2
	s0.53,0.3,0.68,0.5s0.26,0.43,0.32,0.69s0.09,0.63,0.09,1.11V27.23z M246.48,25.25l1.64,0.28c-0.21,0.6-0.54,1.06-1,1.37
	s-1.02,0.47-1.71,0.47c-1.08,0-1.88-0.35-2.4-1.06c-0.41-0.57-0.62-1.28-0.62-2.14c0-1.03,0.27-1.84,0.81-2.42s1.22-0.88,2.04-0.88
	c0.93,0,1.66,0.31,2.19,0.92s0.79,1.55,0.77,2.81h-4.12c0.01,0.49,0.14,0.87,0.4,1.14s0.57,0.41,0.95,0.41
	c0.26,0,0.47-0.07,0.65-0.21S246.39,25.56,246.48,25.25z M246.57,23.59c-0.01-0.48-0.13-0.84-0.37-1.09s-0.52-0.37-0.86-0.37
	c-0.36,0-0.66,0.13-0.89,0.39s-0.35,0.62-0.35,1.07H246.57z M250.71,27.23l-1.97-6.22h1.6l1.17,4.08l1.07-4.08h1.59l1.04,4.08
	l1.19-4.08h1.62l-2,6.22h-1.58l-1.07-4l-1.05,4H250.71z M0.69,35.41H2.2v0.85c0.54-0.66,1.19-0.99,1.94-0.99
	c0.4,0,0.74,0.08,1.04,0.25s0.53,0.41,0.72,0.74c0.27-0.33,0.57-0.58,0.88-0.74s0.65-0.25,1.01-0.25c0.46,0,0.84,0.09,1.16,0.28
	S9.51,36,9.67,36.36c0.11,0.27,0.17,0.7,0.17,1.29v3.98H8.19v-3.56c0-0.62-0.06-1.02-0.17-1.2c-0.15-0.23-0.39-0.35-0.7-0.35
	c-0.23,0-0.45,0.07-0.65,0.21s-0.35,0.35-0.44,0.62s-0.13,0.7-0.13,1.29v2.99H4.45v-3.41c0-0.61-0.03-1-0.09-1.17
	s-0.15-0.31-0.27-0.39s-0.29-0.13-0.5-0.13c-0.25,0-0.48,0.07-0.69,0.21s-0.35,0.33-0.44,0.59s-0.13,0.69-0.13,1.28v3.02H0.69V35.41
	z M15.57,41.63V40.7c-0.23,0.33-0.52,0.59-0.89,0.79s-0.76,0.29-1.17,0.29c-0.42,0-0.79-0.09-1.12-0.28s-0.57-0.44-0.72-0.77
	s-0.22-0.79-0.22-1.38v-3.94h1.65v2.86c0,0.88,0.03,1.41,0.09,1.61s0.17,0.35,0.33,0.47s0.36,0.17,0.61,0.17
	c0.28,0,0.53-0.08,0.76-0.23s0.38-0.35,0.46-0.57s0.12-0.79,0.12-1.68v-2.62h1.65v6.22H15.57z M18.23,39.85l1.65-0.25
	c0.07,0.32,0.21,0.56,0.43,0.73s0.52,0.25,0.9,0.25c0.43,0,0.75-0.08,0.96-0.23c0.14-0.11,0.22-0.26,0.22-0.44
	c0-0.12-0.04-0.23-0.12-0.31c-0.08-0.08-0.27-0.15-0.55-0.22c-1.33-0.29-2.17-0.56-2.53-0.8c-0.49-0.34-0.74-0.8-0.74-1.4
	c0-0.54,0.21-0.99,0.64-1.36s1.09-0.55,1.98-0.55c0.85,0,1.48,0.14,1.9,0.42s0.7,0.69,0.86,1.23l-1.55,0.29
	c-0.07-0.24-0.19-0.43-0.38-0.56s-0.45-0.19-0.79-0.19c-0.43,0-0.74,0.06-0.93,0.18c-0.12,0.09-0.19,0.2-0.19,0.33
	c0,0.12,0.05,0.22,0.16,0.3c0.15,0.11,0.66,0.26,1.54,0.46s1.49,0.44,1.84,0.73c0.34,0.29,0.52,0.7,0.52,1.22
	c0,0.57-0.24,1.06-0.71,1.47s-1.18,0.62-2.12,0.62c-0.85,0-1.52-0.17-2.01-0.52S18.38,40.44,18.23,39.85z M25.48,34.56v-1.52h1.65
	v1.52H25.48z M25.48,41.63v-6.22h1.65v6.22H25.48z M34.24,37.25l-1.62,0.29c-0.05-0.32-0.18-0.57-0.37-0.73s-0.44-0.25-0.75-0.25
	c-0.41,0-0.74,0.14-0.98,0.42s-0.37,0.76-0.37,1.42c0,0.74,0.12,1.26,0.37,1.56s0.58,0.46,1,0.46c0.31,0,0.57-0.09,0.77-0.27
	s0.34-0.48,0.42-0.92l1.62,0.28c-0.17,0.74-0.49,1.3-0.97,1.68s-1.12,0.57-1.92,0.57c-0.91,0-1.64-0.29-2.18-0.86
	s-0.81-1.37-0.81-2.38c0-1.03,0.27-1.83,0.81-2.4s1.28-0.86,2.2-0.86c0.76,0,1.36,0.16,1.81,0.49S34.05,36.58,34.24,37.25z
	 M39.86,41.63v-8.59h1.65v3.09c0.51-0.58,1.11-0.87,1.8-0.87c0.76,0,1.38,0.27,1.88,0.82s0.74,1.34,0.74,2.36
	c0,1.06-0.25,1.88-0.76,2.46s-1.12,0.86-1.84,0.86c-0.36,0-0.71-0.09-1.05-0.27s-0.64-0.44-0.89-0.79v0.91H39.86z M41.5,38.38
	c0,0.64,0.1,1.12,0.3,1.43c0.29,0.44,0.66,0.66,1.14,0.66c0.36,0,0.67-0.16,0.93-0.47s0.38-0.8,0.38-1.47
	c0-0.71-0.13-1.22-0.39-1.54s-0.59-0.47-0.99-0.47c-0.39,0-0.72,0.15-0.98,0.46S41.5,37.76,41.5,38.38z M46.49,35.41h1.75l1.49,4.42
	l1.45-4.42h1.71l-2.2,5.99l-0.39,1.08c-0.14,0.36-0.28,0.64-0.41,0.83s-0.28,0.35-0.45,0.47s-0.38,0.21-0.63,0.28
	s-0.53,0.1-0.84,0.1c-0.32,0-0.63-0.03-0.93-0.1l-0.15-1.29c0.26,0.05,0.49,0.08,0.7,0.08c0.38,0,0.67-0.11,0.85-0.34
	s0.32-0.51,0.42-0.86L46.49,35.41z M63.81,37.25l-1.62,0.29c-0.05-0.32-0.18-0.57-0.37-0.73s-0.44-0.25-0.75-0.25
	c-0.41,0-0.74,0.14-0.98,0.42s-0.37,0.76-0.37,1.42c0,0.74,0.12,1.26,0.37,1.56s0.58,0.46,1,0.46c0.31,0,0.57-0.09,0.77-0.27
	s0.34-0.48,0.42-0.92l1.62,0.28c-0.17,0.74-0.49,1.3-0.97,1.68s-1.12,0.57-1.92,0.57c-0.91,0-1.64-0.29-2.18-0.86
	s-0.81-1.37-0.81-2.38c0-1.03,0.27-1.83,0.81-2.4s1.28-0.86,2.2-0.86c0.76,0,1.36,0.16,1.81,0.49S63.61,36.58,63.81,37.25z
	 M64.68,38.43c0-0.55,0.13-1.08,0.4-1.59s0.65-0.9,1.15-1.17s1.05-0.4,1.66-0.4c0.94,0,1.71,0.31,2.31,0.92s0.9,1.38,0.9,2.32
	c0,0.94-0.3,1.72-0.91,2.34s-1.37,0.93-2.29,0.93c-0.57,0-1.11-0.13-1.63-0.39s-0.91-0.64-1.18-1.13S64.68,39.15,64.68,38.43z
	 M66.36,38.52c0,0.62,0.15,1.09,0.44,1.42s0.65,0.49,1.08,0.49s0.79-0.16,1.08-0.49s0.44-0.8,0.44-1.43c0-0.61-0.15-1.08-0.44-1.41
	s-0.65-0.49-1.08-0.49s-0.79,0.16-1.08,0.49S66.36,37.9,66.36,38.52z M78.05,41.63H76.4v-3.18c0-0.67-0.04-1.11-0.11-1.3
	s-0.18-0.35-0.34-0.46s-0.35-0.16-0.57-0.16c-0.29,0-0.54,0.08-0.77,0.23s-0.38,0.36-0.47,0.62s-0.13,0.73-0.13,1.43v2.82h-1.65
	v-6.22h1.53v0.91c0.54-0.7,1.23-1.05,2.05-1.05c0.36,0,0.7,0.07,1,0.2s0.53,0.3,0.68,0.5s0.26,0.43,0.32,0.69s0.09,0.63,0.09,1.11
	V41.63z M85.38,41.63h-1.65v-3.18c0-0.67-0.04-1.11-0.11-1.3s-0.18-0.35-0.34-0.46s-0.35-0.16-0.57-0.16
	c-0.29,0-0.54,0.08-0.77,0.23s-0.38,0.36-0.47,0.62s-0.13,0.73-0.13,1.43v2.82h-1.65v-6.22h1.53v0.91c0.54-0.7,1.23-1.05,2.05-1.05
	c0.36,0,0.7,0.07,1,0.2s0.53,0.3,0.68,0.5s0.26,0.43,0.32,0.69s0.09,0.63,0.09,1.11V41.63z M90.65,39.65l1.64,0.28
	c-0.21,0.6-0.54,1.06-1,1.37s-1.02,0.47-1.71,0.47c-1.08,0-1.88-0.35-2.4-1.06c-0.41-0.57-0.62-1.28-0.62-2.14
	c0-1.03,0.27-1.84,0.81-2.42s1.22-0.88,2.04-0.88c0.93,0,1.66,0.31,2.19,0.92s0.79,1.55,0.77,2.81h-4.12
	c0.01,0.49,0.14,0.87,0.4,1.14s0.57,0.41,0.95,0.41c0.26,0,0.47-0.07,0.65-0.21S90.56,39.96,90.65,39.65z M90.74,37.99
	c-0.01-0.48-0.13-0.84-0.37-1.09s-0.52-0.37-0.86-0.37c-0.36,0-0.66,0.13-0.89,0.39s-0.35,0.62-0.35,1.07H90.74z M99.15,37.25
	l-1.62,0.29c-0.05-0.32-0.18-0.57-0.37-0.73s-0.44-0.25-0.75-0.25c-0.41,0-0.74,0.14-0.98,0.42s-0.37,0.76-0.37,1.42
	c0,0.74,0.12,1.26,0.37,1.56s0.58,0.46,1,0.46c0.31,0,0.57-0.09,0.77-0.27s0.34-0.48,0.42-0.92l1.62,0.28
	c-0.17,0.74-0.49,1.3-0.97,1.68s-1.12,0.57-1.92,0.57c-0.91,0-1.64-0.29-2.18-0.86s-0.81-1.37-0.81-2.38c0-1.03,0.27-1.83,0.81-2.4
	s1.28-0.86,2.2-0.86c0.76,0,1.36,0.16,1.81,0.49S98.95,36.58,99.15,37.25z M103.25,35.41v1.31h-1.12v2.51c0,0.51,0.01,0.8,0.03,0.89
	s0.07,0.15,0.15,0.21s0.17,0.08,0.28,0.08c0.15,0,0.37-0.05,0.66-0.16l0.14,1.28c-0.38,0.16-0.82,0.25-1.3,0.25
	c-0.3,0-0.56-0.05-0.8-0.15s-0.41-0.23-0.52-0.39s-0.19-0.37-0.23-0.64c-0.04-0.19-0.05-0.58-0.05-1.16v-2.71h-0.76v-1.31h0.76
	v-1.24l1.65-0.96v2.2H103.25z M104.39,34.56v-1.52h1.65v1.52H104.39z M104.39,41.63v-6.22h1.65v6.22H104.39z M113.38,41.63h-1.65
	v-3.18c0-0.67-0.04-1.11-0.11-1.3s-0.18-0.35-0.34-0.46s-0.35-0.16-0.57-0.16c-0.29,0-0.54,0.08-0.77,0.23s-0.38,0.36-0.47,0.62
	s-0.13,0.73-0.13,1.43v2.82h-1.65v-6.22h1.53v0.91c0.54-0.7,1.23-1.05,2.05-1.05c0.36,0,0.7,0.07,1,0.2s0.53,0.3,0.68,0.5
	s0.26,0.43,0.32,0.69s0.09,0.63,0.09,1.11V41.63z M114.9,42.04l1.88,0.23c0.03,0.22,0.1,0.37,0.22,0.45
	c0.16,0.12,0.4,0.18,0.74,0.18c0.43,0,0.75-0.06,0.97-0.19c0.14-0.09,0.25-0.22,0.33-0.42c0.05-0.14,0.08-0.39,0.08-0.76v-0.91
	c-0.49,0.67-1.11,1.01-1.86,1.01c-0.84,0-1.5-0.35-1.99-1.06c-0.38-0.56-0.57-1.25-0.57-2.09c0-1.04,0.25-1.84,0.75-2.39
	s1.13-0.83,1.87-0.83c0.77,0,1.4,0.34,1.9,1.01v-0.87h1.54v5.58c0,0.73-0.06,1.28-0.18,1.65s-0.29,0.65-0.51,0.86
	s-0.51,0.37-0.88,0.49s-0.83,0.18-1.39,0.18c-1.05,0-1.8-0.18-2.24-0.54s-0.66-0.82-0.66-1.37C114.9,42.18,114.9,42.12,114.9,42.04z
	 M116.37,38.39c0,0.66,0.13,1.14,0.38,1.45s0.57,0.46,0.95,0.46c0.4,0,0.74-0.16,1.02-0.47s0.42-0.78,0.42-1.4
	c0-0.64-0.13-1.12-0.4-1.44s-0.6-0.47-1.01-0.47c-0.39,0-0.72,0.15-0.98,0.46S116.37,37.76,116.37,38.39z M130.92,41.63V40.7
	c-0.23,0.33-0.52,0.59-0.89,0.79s-0.76,0.29-1.17,0.29c-0.42,0-0.79-0.09-1.12-0.28s-0.57-0.44-0.72-0.77s-0.22-0.79-0.22-1.38
	v-3.94h1.65v2.86c0,0.88,0.03,1.41,0.09,1.61s0.17,0.35,0.33,0.47s0.36,0.17,0.61,0.17c0.28,0,0.53-0.08,0.76-0.23
	s0.38-0.35,0.46-0.57s0.12-0.79,0.12-1.68v-2.62h1.65v6.22H130.92z M133.58,39.85l1.65-0.25c0.07,0.32,0.21,0.56,0.43,0.73
	s0.52,0.25,0.9,0.25c0.43,0,0.75-0.08,0.96-0.23c0.14-0.11,0.22-0.26,0.22-0.44c0-0.12-0.04-0.23-0.12-0.31
	c-0.08-0.08-0.27-0.15-0.55-0.22c-1.33-0.29-2.17-0.56-2.53-0.8c-0.49-0.34-0.74-0.8-0.74-1.4c0-0.54,0.21-0.99,0.64-1.36
	s1.09-0.55,1.98-0.55c0.85,0,1.48,0.14,1.9,0.42s0.7,0.69,0.86,1.23l-1.55,0.29c-0.07-0.24-0.19-0.43-0.38-0.56
	s-0.45-0.19-0.79-0.19c-0.43,0-0.74,0.06-0.93,0.18c-0.12,0.09-0.19,0.2-0.19,0.33c0,0.12,0.05,0.22,0.16,0.3
	c0.15,0.11,0.66,0.26,1.54,0.46c0.88,0.2,1.49,0.44,1.84,0.73c0.34,0.29,0.52,0.7,0.52,1.22c0,0.57-0.24,1.06-0.71,1.47
	s-1.18,0.62-2.12,0.62c-0.85,0-1.52-0.17-2.01-0.52S133.73,40.44,133.58,39.85z M144.44,39.65l1.64,0.28c-0.21,0.6-0.54,1.06-1,1.37
	s-1.02,0.47-1.71,0.47c-1.08,0-1.88-0.35-2.4-1.06c-0.41-0.57-0.62-1.28-0.62-2.14c0-1.03,0.27-1.84,0.81-2.42s1.22-0.88,2.04-0.88
	c0.93,0,1.66,0.31,2.19,0.92s0.79,1.55,0.77,2.81h-4.12c0.01,0.49,0.14,0.87,0.4,1.14s0.57,0.41,0.95,0.41
	c0.26,0,0.47-0.07,0.65-0.21S144.35,39.96,144.44,39.65z M144.53,37.99c-0.01-0.48-0.13-0.84-0.37-1.09s-0.52-0.37-0.86-0.37
	c-0.36,0-0.66,0.13-0.89,0.39s-0.35,0.62-0.35,1.07H144.53z M149.08,41.63h-1.65v-6.22h1.53v0.88c0.26-0.42,0.5-0.69,0.71-0.83
	s0.45-0.2,0.71-0.2c0.38,0,0.74,0.1,1.08,0.31l-0.51,1.44c-0.28-0.18-0.54-0.27-0.77-0.27c-0.23,0-0.43,0.06-0.59,0.19
	s-0.29,0.36-0.38,0.69s-0.14,1.03-0.14,2.09V41.63z M151.6,39.85l1.65-0.25c0.07,0.32,0.21,0.56,0.43,0.73s0.52,0.25,0.9,0.25
	c0.43,0,0.75-0.08,0.96-0.23c0.14-0.11,0.22-0.26,0.22-0.44c0-0.12-0.04-0.23-0.12-0.31c-0.08-0.08-0.27-0.15-0.55-0.22
	c-1.33-0.29-2.17-0.56-2.53-0.8c-0.49-0.34-0.74-0.8-0.74-1.4c0-0.54,0.21-0.99,0.64-1.36s1.09-0.55,1.98-0.55
	c0.85,0,1.48,0.14,1.9,0.42s0.7,0.69,0.86,1.23l-1.55,0.29c-0.07-0.24-0.19-0.43-0.38-0.56s-0.45-0.19-0.79-0.19
	c-0.43,0-0.74,0.06-0.93,0.18c-0.12,0.09-0.19,0.2-0.19,0.33c0,0.12,0.05,0.22,0.16,0.3c0.15,0.11,0.66,0.26,1.54,0.46
	s1.49,0.44,1.84,0.73c0.34,0.29,0.52,0.7,0.52,1.22c0,0.57-0.24,1.06-0.71,1.47s-1.18,0.62-2.12,0.62c-0.85,0-1.52-0.17-2.01-0.52
	S151.75,40.44,151.6,39.85z M166.15,35.41v1.31h-1.12v2.51c0,0.51,0.01,0.8,0.03,0.89s0.07,0.15,0.15,0.21s0.17,0.08,0.28,0.08
	c0.15,0,0.37-0.05,0.66-0.16l0.14,1.28c-0.38,0.16-0.82,0.25-1.3,0.25c-0.3,0-0.56-0.05-0.8-0.15s-0.41-0.23-0.52-0.39
	s-0.19-0.37-0.23-0.64c-0.04-0.19-0.05-0.58-0.05-1.16v-2.71h-0.76v-1.31h0.76v-1.24l1.65-0.96v2.2H166.15z M166.91,38.43
	c0-0.55,0.13-1.08,0.4-1.59s0.65-0.9,1.15-1.17s1.05-0.4,1.66-0.4c0.94,0,1.71,0.31,2.31,0.92s0.9,1.38,0.9,2.32
	c0,0.94-0.3,1.72-0.91,2.34s-1.37,0.93-2.29,0.93c-0.57,0-1.11-0.13-1.63-0.39s-0.91-0.64-1.18-1.13S166.91,39.15,166.91,38.43z
	 M168.6,38.52c0,0.62,0.15,1.09,0.44,1.42s0.65,0.49,1.08,0.49s0.79-0.16,1.08-0.49s0.44-0.8,0.44-1.43c0-0.61-0.15-1.08-0.44-1.41
	s-0.65-0.49-1.08-0.49s-0.79,0.16-1.08,0.49S168.6,37.9,168.6,38.52z M184.73,41.63h-1.65v-3.18c0-0.67-0.04-1.11-0.11-1.3
	s-0.18-0.35-0.34-0.46s-0.35-0.16-0.57-0.16c-0.29,0-0.54,0.08-0.77,0.23s-0.38,0.36-0.47,0.62s-0.13,0.73-0.13,1.43v2.82h-1.65
	v-6.22h1.53v0.91c0.54-0.7,1.23-1.05,2.05-1.05c0.36,0,0.7,0.07,1,0.2s0.53,0.3,0.68,0.5s0.26,0.43,0.32,0.69s0.09,0.63,0.09,1.11
	V41.63z M190,39.65l1.64,0.28c-0.21,0.6-0.54,1.06-1,1.37s-1.02,0.47-1.71,0.47c-1.08,0-1.88-0.35-2.4-1.06
	c-0.41-0.57-0.62-1.28-0.62-2.14c0-1.03,0.27-1.84,0.81-2.42s1.22-0.88,2.04-0.88c0.93,0,1.66,0.31,2.19,0.92s0.79,1.55,0.77,2.81
	h-4.12c0.01,0.49,0.14,0.87,0.4,1.14s0.57,0.41,0.95,0.41c0.26,0,0.47-0.07,0.65-0.21S189.91,39.96,190,39.65z M190.09,37.99
	c-0.01-0.48-0.13-0.84-0.37-1.09s-0.52-0.37-0.86-0.37c-0.36,0-0.66,0.13-0.89,0.39s-0.35,0.62-0.35,1.07H190.09z M194.3,37.31
	l-1.49-0.27c0.17-0.6,0.46-1.05,0.87-1.34s1.02-0.43,1.83-0.43c0.73,0,1.28,0.09,1.64,0.26s0.61,0.39,0.76,0.66s0.22,0.76,0.22,1.47
	l-0.02,1.92c0,0.55,0.03,0.95,0.08,1.21s0.15,0.54,0.3,0.83h-1.63c-0.04-0.11-0.1-0.27-0.16-0.49c-0.03-0.1-0.05-0.16-0.06-0.19
	c-0.28,0.27-0.58,0.48-0.9,0.62s-0.66,0.21-1.03,0.21c-0.64,0-1.15-0.17-1.51-0.52s-0.55-0.79-0.55-1.32c0-0.35,0.08-0.67,0.25-0.94
	s0.4-0.49,0.71-0.63s0.74-0.27,1.31-0.38c0.77-0.14,1.3-0.28,1.6-0.4v-0.16c0-0.32-0.08-0.54-0.23-0.68s-0.45-0.2-0.88-0.2
	c-0.29,0-0.52,0.06-0.69,0.17S194.4,37.02,194.3,37.31z M196.5,38.64c-0.21,0.07-0.54,0.15-1,0.25s-0.76,0.19-0.9,0.29
	c-0.21,0.15-0.32,0.35-0.32,0.58c0,0.23,0.09,0.43,0.26,0.6s0.39,0.25,0.66,0.25c0.3,0,0.58-0.1,0.85-0.29
	c0.2-0.15,0.33-0.33,0.39-0.54c0.04-0.14,0.06-0.41,0.06-0.8V38.64z M201.32,41.63h-1.65v-6.22h1.53v0.88
	c0.26-0.42,0.5-0.69,0.71-0.83s0.45-0.2,0.71-0.2c0.38,0,0.74,0.1,1.08,0.31l-0.51,1.44c-0.28-0.18-0.54-0.27-0.77-0.27
	c-0.23,0-0.43,0.06-0.59,0.19s-0.29,0.36-0.38,0.69s-0.14,1.03-0.14,2.09V41.63z M204.34,41.63v-8.59h1.65v3.09
	c0.51-0.58,1.11-0.87,1.8-0.87c0.76,0,1.38,0.27,1.88,0.82s0.74,1.34,0.74,2.36c0,1.06-0.25,1.88-0.76,2.46s-1.12,0.86-1.84,0.86
	c-0.36,0-0.71-0.09-1.05-0.27s-0.64-0.44-0.89-0.79v0.91H204.34z M205.98,38.38c0,0.64,0.1,1.12,0.3,1.43
	c0.29,0.44,0.66,0.66,1.14,0.66c0.36,0,0.67-0.16,0.93-0.47s0.38-0.8,0.38-1.47c0-0.71-0.13-1.22-0.39-1.54s-0.59-0.47-0.99-0.47
	c-0.39,0-0.72,0.15-0.98,0.46S205.98,37.76,205.98,38.38z M210.96,35.41h1.75l1.49,4.42l1.45-4.42h1.71l-2.2,5.99l-0.39,1.08
	c-0.14,0.36-0.28,0.64-0.41,0.83s-0.28,0.35-0.45,0.47s-0.38,0.21-0.63,0.28s-0.53,0.1-0.84,0.1c-0.32,0-0.63-0.03-0.93-0.1
	l-0.15-1.29c0.26,0.05,0.49,0.08,0.7,0.08c0.38,0,0.67-0.11,0.85-0.34s0.32-0.51,0.42-0.86L210.96,35.41z M224.09,37.31l-1.49-0.27
	c0.17-0.6,0.46-1.05,0.87-1.34s1.02-0.43,1.83-0.43c0.73,0,1.28,0.09,1.64,0.26s0.61,0.39,0.76,0.66s0.22,0.76,0.22,1.47l-0.02,1.92
	c0,0.55,0.03,0.95,0.08,1.21s0.15,0.54,0.3,0.83h-1.63c-0.04-0.11-0.1-0.27-0.16-0.49c-0.03-0.1-0.05-0.16-0.06-0.19
	c-0.28,0.27-0.58,0.48-0.9,0.62s-0.66,0.21-1.03,0.21c-0.64,0-1.15-0.17-1.51-0.52s-0.55-0.79-0.55-1.32c0-0.35,0.08-0.67,0.25-0.94
	s0.4-0.49,0.71-0.63s0.74-0.27,1.31-0.38c0.77-0.14,1.3-0.28,1.6-0.4v-0.16c0-0.32-0.08-0.54-0.23-0.68s-0.45-0.2-0.88-0.2
	c-0.29,0-0.52,0.06-0.69,0.17S224.19,37.02,224.09,37.31z M226.29,38.64c-0.21,0.07-0.54,0.15-1,0.25s-0.76,0.19-0.9,0.29
	c-0.21,0.15-0.32,0.35-0.32,0.58c0,0.23,0.09,0.43,0.26,0.6s0.39,0.25,0.66,0.25c0.3,0,0.58-0.1,0.85-0.29
	c0.2-0.15,0.33-0.33,0.39-0.54c0.04-0.14,0.06-0.41,0.06-0.8V38.64z M231.11,41.63h-1.65v-6.22h1.53v0.88
	c0.26-0.42,0.5-0.69,0.71-0.83s0.45-0.2,0.71-0.2c0.38,0,0.74,0.1,1.08,0.31l-0.51,1.44c-0.28-0.18-0.54-0.27-0.77-0.27
	c-0.23,0-0.43,0.06-0.59,0.19s-0.29,0.36-0.38,0.69s-0.14,1.03-0.14,2.09V41.63z M237.06,35.41v1.31h-1.12v2.51
	c0,0.51,0.01,0.8,0.03,0.89s0.07,0.15,0.15,0.21s0.17,0.08,0.28,0.08c0.15,0,0.37-0.05,0.66-0.16l0.14,1.28
	c-0.38,0.16-0.82,0.25-1.3,0.25c-0.3,0-0.56-0.05-0.8-0.15s-0.41-0.23-0.52-0.39s-0.19-0.37-0.23-0.64
	c-0.04-0.19-0.05-0.58-0.05-1.16v-2.71h-0.76v-1.31h0.76v-1.24l1.65-0.96v2.2H237.06z M238.2,34.56v-1.52h1.65v1.52H238.2z
	 M238.2,41.63v-6.22h1.65v6.22H238.2z M240.95,39.85l1.65-0.25c0.07,0.32,0.21,0.56,0.43,0.73s0.52,0.25,0.9,0.25
	c0.43,0,0.75-0.08,0.96-0.23c0.14-0.11,0.22-0.26,0.22-0.44c0-0.12-0.04-0.23-0.12-0.31c-0.08-0.08-0.27-0.15-0.55-0.22
	c-1.33-0.29-2.17-0.56-2.53-0.8c-0.49-0.34-0.74-0.8-0.74-1.4c0-0.54,0.21-0.99,0.64-1.36s1.09-0.55,1.98-0.55
	c0.85,0,1.48,0.14,1.9,0.42s0.7,0.69,0.86,1.23L245,37.2c-0.07-0.24-0.19-0.43-0.38-0.56s-0.45-0.19-0.79-0.19
	c-0.43,0-0.74,0.06-0.93,0.18c-0.12,0.09-0.19,0.2-0.19,0.33c0,0.12,0.05,0.22,0.16,0.3c0.15,0.11,0.66,0.26,1.54,0.46
	s1.49,0.44,1.84,0.73c0.34,0.29,0.52,0.7,0.52,1.22c0,0.57-0.24,1.06-0.71,1.47s-1.18,0.62-2.12,0.62c-0.85,0-1.52-0.17-2.01-0.52
	S241.11,40.44,240.95,39.85z M251.06,35.41v1.31h-1.12v2.51c0,0.51,0.01,0.8,0.03,0.89s0.07,0.15,0.15,0.21s0.17,0.08,0.28,0.08
	c0.15,0,0.37-0.05,0.66-0.16l0.14,1.28c-0.38,0.16-0.82,0.25-1.3,0.25c-0.3,0-0.56-0.05-0.8-0.15s-0.41-0.23-0.52-0.39
	s-0.19-0.37-0.23-0.64c-0.04-0.19-0.05-0.58-0.05-1.16v-2.71h-0.76v-1.31h0.76v-1.24l1.65-0.96v2.2H251.06z M251.62,39.85l1.65-0.25
	c0.07,0.32,0.21,0.56,0.43,0.73s0.52,0.25,0.9,0.25c0.43,0,0.75-0.08,0.96-0.23c0.14-0.11,0.22-0.26,0.22-0.44
	c0-0.12-0.04-0.23-0.12-0.31c-0.08-0.08-0.27-0.15-0.55-0.22c-1.33-0.29-2.17-0.56-2.53-0.8c-0.49-0.34-0.74-0.8-0.74-1.4
	c0-0.54,0.21-0.99,0.64-1.36s1.09-0.55,1.98-0.55c0.85,0,1.48,0.14,1.9,0.42s0.7,0.69,0.86,1.23l-1.55,0.29
	c-0.07-0.24-0.19-0.43-0.38-0.56s-0.45-0.19-0.79-0.19c-0.43,0-0.74,0.06-0.93,0.18c-0.12,0.09-0.19,0.2-0.19,0.33
	c0,0.12,0.05,0.22,0.16,0.3c0.15,0.11,0.66,0.26,1.54,0.46s1.49,0.44,1.84,0.73c0.34,0.29,0.52,0.7,0.52,1.22
	c0,0.57-0.24,1.06-0.71,1.47s-1.18,0.62-2.12,0.62c-0.85,0-1.52-0.17-2.01-0.52S251.78,40.44,251.62,39.85z M2.04,51.71l-1.49-0.27
	c0.17-0.6,0.46-1.05,0.87-1.34s1.02-0.43,1.83-0.43c0.73,0,1.28,0.09,1.64,0.26s0.61,0.39,0.76,0.66s0.22,0.76,0.22,1.47l-0.02,1.92
	c0,0.55,0.03,0.95,0.08,1.21s0.15,0.54,0.3,0.83H4.59c-0.04-0.11-0.1-0.27-0.16-0.49c-0.03-0.1-0.05-0.16-0.06-0.19
	c-0.28,0.27-0.58,0.48-0.9,0.62s-0.66,0.21-1.03,0.21c-0.64,0-1.15-0.17-1.51-0.52s-0.55-0.79-0.55-1.32c0-0.35,0.08-0.67,0.25-0.94
	s0.4-0.49,0.71-0.63s0.74-0.27,1.31-0.38c0.77-0.14,1.3-0.28,1.6-0.4v-0.16c0-0.32-0.08-0.54-0.23-0.68s-0.45-0.2-0.88-0.2
	c-0.29,0-0.52,0.06-0.69,0.17S2.14,51.42,2.04,51.71z M4.24,53.04c-0.21,0.07-0.54,0.15-1,0.25s-0.76,0.19-0.9,0.29
	c-0.21,0.15-0.32,0.35-0.32,0.58c0,0.23,0.09,0.43,0.26,0.6s0.39,0.25,0.66,0.25c0.3,0,0.58-0.1,0.85-0.29
	c0.2-0.15,0.33-0.33,0.39-0.54c0.04-0.14,0.06-0.41,0.06-0.8V53.04z M13.14,56.03H11.5v-3.18c0-0.67-0.04-1.11-0.11-1.3
	s-0.18-0.35-0.34-0.46s-0.35-0.16-0.57-0.16c-0.29,0-0.54,0.08-0.77,0.23s-0.38,0.36-0.47,0.62s-0.13,0.73-0.13,1.43v2.82H7.47
	v-6.22H9v0.91c0.54-0.7,1.23-1.05,2.05-1.05c0.36,0,0.7,0.07,1,0.2s0.53,0.3,0.68,0.5s0.26,0.43,0.32,0.69s0.09,0.63,0.09,1.11
	V56.03z M20.52,56.03h-1.53v-0.91c-0.25,0.36-0.55,0.62-0.9,0.79s-0.69,0.26-1.05,0.26c-0.71,0-1.33-0.29-1.84-0.86
	s-0.76-1.38-0.76-2.41c0-1.05,0.25-1.86,0.74-2.41s1.12-0.82,1.88-0.82c0.7,0,1.3,0.29,1.8,0.87v-3.09h1.65V56.03z M16.12,52.78
	c0,0.66,0.09,1.14,0.28,1.44c0.27,0.43,0.64,0.64,1.11,0.64c0.38,0,0.7-0.16,0.97-0.48s0.4-0.8,0.4-1.44c0-0.71-0.13-1.23-0.39-1.54
	s-0.59-0.47-0.99-0.47c-0.39,0-0.72,0.16-0.98,0.47S16.12,52.17,16.12,52.78z M24.9,54.25L26.55,54c0.07,0.32,0.21,0.56,0.43,0.73
	s0.52,0.25,0.9,0.25c0.43,0,0.75-0.08,0.96-0.23c0.14-0.11,0.22-0.26,0.22-0.44c0-0.12-0.04-0.23-0.12-0.31
	c-0.08-0.08-0.27-0.15-0.55-0.22c-1.33-0.29-2.17-0.56-2.53-0.8c-0.49-0.34-0.74-0.8-0.74-1.4c0-0.54,0.21-0.99,0.64-1.36
	s1.09-0.55,1.98-0.55c0.85,0,1.48,0.14,1.9,0.42s0.7,0.69,0.86,1.23l-1.55,0.29c-0.07-0.24-0.19-0.43-0.38-0.56
	s-0.45-0.19-0.79-0.19c-0.43,0-0.74,0.06-0.93,0.18c-0.12,0.09-0.19,0.2-0.19,0.33c0,0.12,0.05,0.22,0.16,0.3
	c0.15,0.11,0.66,0.26,1.54,0.46s1.49,0.44,1.84,0.73c0.34,0.29,0.52,0.7,0.52,1.22c0,0.57-0.24,1.06-0.71,1.47s-1.18,0.62-2.12,0.62
	c-0.85,0-1.52-0.17-2.01-0.52S25.05,54.84,24.9,54.25z M33.79,47.44v3.16c0.53-0.62,1.17-0.93,1.9-0.93c0.38,0,0.72,0.07,1.03,0.21
	s0.53,0.32,0.69,0.54s0.26,0.46,0.32,0.73s0.08,0.68,0.08,1.24v3.65h-1.65v-3.29c0-0.65-0.03-1.07-0.09-1.24s-0.17-0.32-0.33-0.42
	s-0.36-0.16-0.59-0.16c-0.27,0-0.52,0.07-0.73,0.2s-0.37,0.33-0.47,0.6s-0.15,0.66-0.15,1.19v3.12h-1.65v-8.59H33.79z M39.1,52.83
	c0-0.55,0.13-1.08,0.4-1.59s0.65-0.9,1.15-1.17s1.05-0.4,1.66-0.4c0.94,0,1.71,0.31,2.31,0.92s0.9,1.38,0.9,2.32
	c0,0.94-0.3,1.72-0.91,2.34s-1.37,0.93-2.29,0.93c-0.57,0-1.11-0.13-1.63-0.39s-0.91-0.64-1.18-1.13S39.1,53.55,39.1,52.83z
	 M40.79,52.92c0,0.62,0.15,1.09,0.44,1.42s0.65,0.49,1.08,0.49s0.79-0.16,1.08-0.49s0.44-0.8,0.44-1.43c0-0.61-0.15-1.08-0.44-1.41
	s-0.65-0.49-1.08-0.49s-0.79,0.16-1.08,0.49S40.79,52.3,40.79,52.92z M47.97,56.03L46,49.81h1.6l1.17,4.08l1.07-4.08h1.59l1.04,4.08
	l1.19-4.08h1.62l-2,6.22H51.7l-1.07-4l-1.05,4H47.97z M55.56,54.25L57.22,54c0.07,0.32,0.21,0.56,0.43,0.73s0.52,0.25,0.9,0.25
	c0.43,0,0.75-0.08,0.96-0.23c0.14-0.11,0.22-0.26,0.22-0.44c0-0.12-0.04-0.23-0.12-0.31c-0.08-0.08-0.27-0.15-0.55-0.22
	c-1.33-0.29-2.17-0.56-2.53-0.8c-0.49-0.34-0.74-0.8-0.74-1.4c0-0.54,0.21-0.99,0.64-1.36s1.09-0.55,1.98-0.55
	c0.85,0,1.48,0.14,1.9,0.42s0.7,0.69,0.86,1.23l-1.55,0.29c-0.07-0.24-0.19-0.43-0.38-0.56s-0.45-0.19-0.79-0.19
	c-0.43,0-0.74,0.06-0.93,0.18c-0.12,0.09-0.19,0.2-0.19,0.33c0,0.12,0.05,0.22,0.16,0.3c0.15,0.11,0.66,0.26,1.54,0.46
	s1.49,0.44,1.84,0.73c0.34,0.29,0.52,0.7,0.52,1.22c0,0.57-0.24,1.06-0.71,1.47s-1.18,0.62-2.12,0.62c-0.85,0-1.52-0.17-2.01-0.52
	S55.72,54.84,55.56,54.25z M62.82,56.03v-1.65h1.65v1.65H62.82z"/>
</svg>
