<?xml version="1.0" encoding="utf-8"?>
<!-- Generator: Adobe Illustrator 25.2.0, SVG Export Plug-In . SVG Version: 6.00 Build 0)  -->
<svg version="1.1" id="Layer_1" xmlns="http://www.w3.org/2000/svg" xmlns:xlink="http://www.w3.org/1999/xlink" x="0px" y="0px"
	 viewBox="0 0 265.66 61.12" style="enable-background:new 0 0 265.66 61.12;" xml:space="preserve">
<style type="text/css">
	.st0{fill:url(#SVGID_1_);}
</style>
<linearGradient id="SVGID_1_" gradientUnits="userSpaceOnUse" x1="4.2076" y1="30.275" x2="262.0323" y2="30.275">
	<stop  offset="0" style="stop-color:#2E3192"/>
	<stop  offset="1" style="stop-color:#EE2A7B"/>
</linearGradient>
<path class="st0" d="M4.59,10.18l1.69-0.16c0.1,0.57,0.31,0.98,0.62,1.25s0.73,0.4,1.26,0.4c0.56,0,0.98-0.12,1.26-0.35
	s0.42-0.51,0.42-0.83c0-0.2-0.06-0.38-0.18-0.52S9.33,9.69,9.04,9.59c-0.2-0.07-0.67-0.2-1.39-0.38C6.72,8.98,6.07,8.7,5.69,8.36
	C5.16,7.89,4.9,7.31,4.9,6.63c0-0.44,0.12-0.85,0.37-1.23s0.61-0.67,1.07-0.87s1.03-0.3,1.69-0.3c1.08,0,1.89,0.24,2.43,0.71
	s0.83,1.1,0.86,1.89L9.59,6.91C9.52,6.47,9.36,6.16,9.11,5.96S8.5,5.67,8.02,5.67c-0.5,0-0.9,0.1-1.18,0.31
	C6.65,6.12,6.56,6.29,6.56,6.52c0,0.2,0.09,0.38,0.26,0.52c0.22,0.18,0.75,0.38,1.59,0.57s1.47,0.41,1.87,0.62S11,8.73,11.23,9.1
	s0.34,0.83,0.34,1.37c0,0.49-0.14,0.95-0.41,1.38S10.5,12.6,10,12.81s-1.12,0.31-1.87,0.31c-1.09,0-1.92-0.25-2.5-0.75
	S4.7,11.14,4.59,10.18z M16.62,10.99l1.64,0.28c-0.21,0.6-0.54,1.06-1,1.37s-1.02,0.47-1.71,0.47c-1.08,0-1.88-0.35-2.4-1.06
	c-0.41-0.57-0.62-1.28-0.62-2.14c0-1.03,0.27-1.84,0.81-2.42s1.22-0.88,2.04-0.88c0.93,0,1.66,0.31,2.19,0.92s0.79,1.55,0.77,2.81
	h-4.12c0.01,0.49,0.14,0.87,0.4,1.14s0.57,0.41,0.95,0.41c0.26,0,0.47-0.07,0.65-0.21S16.53,11.3,16.62,10.99z M16.72,9.33
	c-0.01-0.48-0.13-0.84-0.37-1.09c-0.23-0.25-0.52-0.37-0.86-0.37c-0.36,0-0.66,0.13-0.89,0.39s-0.35,0.62-0.35,1.07H16.72z
	 M25.12,8.59L23.5,8.88c-0.05-0.32-0.18-0.57-0.37-0.73c-0.19-0.16-0.44-0.25-0.75-0.25c-0.41,0-0.74,0.14-0.98,0.42
	s-0.37,0.76-0.37,1.42c0,0.74,0.12,1.26,0.37,1.56s0.58,0.46,1,0.46c0.31,0,0.57-0.09,0.77-0.27s0.34-0.48,0.42-0.92l1.62,0.28
	c-0.17,0.74-0.49,1.3-0.97,1.68s-1.12,0.57-1.92,0.57c-0.91,0-1.64-0.29-2.18-0.86s-0.81-1.37-0.81-2.38c0-1.03,0.27-1.83,0.81-2.4
	s1.28-0.86,2.2-0.86c0.76,0,1.36,0.16,1.81,0.49S24.92,7.92,25.12,8.59z M27.94,12.97H26.3V6.75h1.53v0.88
	c0.26-0.42,0.5-0.69,0.71-0.83s0.45-0.2,0.71-0.2c0.38,0,0.74,0.1,1.08,0.31l-0.51,1.44c-0.28-0.18-0.54-0.27-0.77-0.27
	c-0.23,0-0.43,0.06-0.59,0.19s-0.29,0.36-0.38,0.69s-0.14,1.03-0.14,2.09V12.97z M34.64,10.99l1.64,0.28c-0.21,0.6-0.54,1.06-1,1.37
	s-1.02,0.47-1.71,0.47c-1.08,0-1.88-0.35-2.4-1.06c-0.41-0.57-0.62-1.28-0.62-2.14c0-1.03,0.27-1.84,0.81-2.42s1.22-0.88,2.04-0.88
	c0.93,0,1.66,0.31,2.19,0.92s0.79,1.55,0.77,2.81h-4.12c0.01,0.49,0.14,0.87,0.4,1.14s0.57,0.41,0.95,0.41
	c0.26,0,0.47-0.07,0.65-0.21S34.55,11.3,34.64,10.99z M34.73,9.33c-0.01-0.48-0.13-0.84-0.37-1.09c-0.23-0.25-0.52-0.37-0.86-0.37
	c-0.36,0-0.66,0.13-0.89,0.39s-0.35,0.62-0.35,1.07H34.73z M40.57,6.75v1.31h-1.12v2.51c0,0.51,0.01,0.8,0.03,0.89
	s0.07,0.15,0.15,0.21s0.17,0.08,0.28,0.08c0.15,0,0.37-0.05,0.66-0.16l0.14,1.28c-0.38,0.16-0.82,0.25-1.3,0.25
	c-0.3,0-0.56-0.05-0.8-0.15s-0.41-0.23-0.52-0.39s-0.19-0.37-0.23-0.64c-0.04-0.19-0.05-0.58-0.05-1.16V8.06h-0.76V6.75h0.76V5.51
	l1.65-0.96v2.2H40.57z M45.03,10.18l1.69-0.16c0.1,0.57,0.31,0.98,0.62,1.25s0.73,0.4,1.26,0.4c0.56,0,0.98-0.12,1.26-0.35
	s0.42-0.51,0.42-0.83c0-0.2-0.06-0.38-0.18-0.52s-0.33-0.27-0.62-0.37c-0.2-0.07-0.67-0.2-1.39-0.38c-0.93-0.23-1.58-0.51-1.96-0.85
	c-0.53-0.47-0.79-1.05-0.79-1.73c0-0.44,0.12-0.85,0.37-1.23s0.61-0.67,1.07-0.87s1.03-0.3,1.69-0.3c1.08,0,1.89,0.24,2.43,0.71
	s0.83,1.1,0.86,1.89l-1.73,0.08c-0.07-0.44-0.23-0.76-0.48-0.95s-0.61-0.29-1.1-0.29c-0.5,0-0.9,0.1-1.18,0.31
	C47.09,6.12,47,6.29,47,6.52c0,0.2,0.09,0.38,0.26,0.52c0.22,0.18,0.75,0.38,1.59,0.57s1.47,0.41,1.87,0.62s0.72,0.5,0.95,0.87
	s0.34,0.83,0.34,1.37c0,0.49-0.14,0.95-0.41,1.38s-0.66,0.75-1.16,0.96s-1.12,0.31-1.87,0.31c-1.09,0-1.92-0.25-2.5-0.75
	S45.15,11.14,45.03,10.18z M55.11,4.38v3.16c0.53-0.62,1.17-0.93,1.9-0.93c0.38,0,0.72,0.07,1.03,0.21s0.53,0.32,0.69,0.54
	s0.26,0.46,0.32,0.73c0.06,0.27,0.08,0.68,0.08,1.24v3.65h-1.65V9.69c0-0.65-0.03-1.07-0.09-1.24s-0.17-0.32-0.33-0.42
	c-0.16-0.1-0.36-0.16-0.59-0.16c-0.27,0-0.52,0.07-0.73,0.2c-0.21,0.13-0.37,0.33-0.47,0.6s-0.15,0.66-0.15,1.19v3.12h-1.65V4.38
	H55.11z M60.41,9.77c0-0.55,0.13-1.08,0.4-1.59s0.65-0.9,1.15-1.17s1.05-0.4,1.66-0.4c0.94,0,1.71,0.31,2.31,0.92s0.9,1.38,0.9,2.32
	c0,0.94-0.3,1.72-0.91,2.34s-1.37,0.93-2.29,0.93c-0.57,0-1.11-0.13-1.63-0.39s-0.91-0.64-1.18-1.13S60.41,10.49,60.41,9.77z
	 M62.1,9.86c0,0.62,0.15,1.09,0.44,1.42s0.65,0.49,1.08,0.49s0.79-0.16,1.08-0.49s0.44-0.8,0.44-1.43c0-0.61-0.15-1.08-0.44-1.41
	s-0.65-0.49-1.08-0.49s-0.79,0.16-1.08,0.49S62.1,9.24,62.1,9.86z M69.29,12.97l-1.97-6.22h1.6l1.17,4.08l1.07-4.08h1.59l1.04,4.08
	l1.19-4.08h1.62l-2,6.22h-1.58l-1.07-4l-1.05,4H69.29z M81.21,5.91V4.38h1.65v1.52H81.21z M81.21,12.97V6.75h1.65v6.22H81.21z
	 M83.97,11.2l1.65-0.25c0.07,0.32,0.21,0.56,0.43,0.73s0.52,0.25,0.9,0.25c0.43,0,0.75-0.08,0.96-0.23
	c0.14-0.11,0.22-0.26,0.22-0.44c0-0.12-0.04-0.23-0.12-0.31c-0.08-0.08-0.27-0.15-0.55-0.22c-1.33-0.29-2.17-0.56-2.53-0.8
	c-0.49-0.34-0.74-0.8-0.74-1.4c0-0.54,0.21-0.99,0.64-1.36s1.09-0.55,1.98-0.55c0.85,0,1.48,0.14,1.9,0.42s0.7,0.69,0.86,1.23
	l-1.55,0.29c-0.07-0.24-0.19-0.43-0.38-0.56c-0.19-0.13-0.45-0.19-0.79-0.19c-0.43,0-0.74,0.06-0.93,0.18
	c-0.12,0.09-0.19,0.2-0.19,0.33c0,0.12,0.05,0.22,0.16,0.3c0.15,0.11,0.66,0.26,1.54,0.46s1.49,0.44,1.84,0.73
	c0.34,0.29,0.52,0.7,0.52,1.22c0,0.57-0.24,1.06-0.71,1.47s-1.18,0.62-2.12,0.62c-0.85,0-1.52-0.17-2.01-0.52
	S84.12,11.79,83.97,11.2z M96.21,8.65l-1.49-0.27c0.17-0.6,0.46-1.05,0.87-1.34s1.02-0.43,1.83-0.43c0.73,0,1.28,0.09,1.64,0.26
	s0.61,0.39,0.76,0.66s0.22,0.76,0.22,1.47l-0.02,1.92c0,0.55,0.03,0.95,0.08,1.21s0.15,0.54,0.3,0.83h-1.63
	c-0.04-0.11-0.1-0.27-0.16-0.49c-0.03-0.1-0.05-0.16-0.06-0.19c-0.28,0.27-0.58,0.48-0.9,0.62s-0.66,0.21-1.03,0.21
	c-0.64,0-1.15-0.17-1.51-0.52s-0.55-0.79-0.55-1.32c0-0.35,0.08-0.67,0.25-0.94s0.4-0.49,0.71-0.63s0.74-0.27,1.31-0.38
	c0.77-0.14,1.3-0.28,1.6-0.4V8.75c0-0.32-0.08-0.54-0.23-0.68c-0.16-0.13-0.45-0.2-0.88-0.2c-0.29,0-0.52,0.06-0.69,0.17
	C96.44,8.16,96.31,8.36,96.21,8.65z M98.41,9.98c-0.21,0.07-0.54,0.15-1,0.25s-0.76,0.19-0.9,0.29c-0.21,0.15-0.32,0.35-0.32,0.58
	c0,0.23,0.09,0.43,0.26,0.6s0.39,0.25,0.66,0.25c0.3,0,0.58-0.1,0.85-0.29c0.2-0.15,0.33-0.33,0.39-0.54
	c0.04-0.14,0.06-0.41,0.06-0.8V9.98z M107.31,12.97h-1.65V9.8c0-0.67-0.04-1.11-0.11-1.3s-0.18-0.35-0.34-0.46
	c-0.16-0.11-0.35-0.16-0.57-0.16c-0.29,0-0.54,0.08-0.77,0.23c-0.23,0.16-0.38,0.36-0.47,0.62s-0.13,0.73-0.13,1.43v2.82h-1.65V6.75
	h1.53v0.91c0.54-0.7,1.23-1.05,2.05-1.05c0.36,0,0.7,0.07,1,0.2s0.53,0.3,0.68,0.5s0.26,0.43,0.32,0.69
	c0.06,0.26,0.09,0.63,0.09,1.11V12.97z M113.96,8.65l-1.49-0.27c0.17-0.6,0.46-1.05,0.87-1.34s1.02-0.43,1.83-0.43
	c0.73,0,1.28,0.09,1.64,0.26s0.61,0.39,0.76,0.66s0.22,0.76,0.22,1.47l-0.02,1.92c0,0.55,0.03,0.95,0.08,1.21s0.15,0.54,0.3,0.83
	h-1.63c-0.04-0.11-0.1-0.27-0.16-0.49c-0.03-0.1-0.05-0.16-0.06-0.19c-0.28,0.27-0.58,0.48-0.9,0.62s-0.66,0.21-1.03,0.21
	c-0.64,0-1.15-0.17-1.51-0.52s-0.55-0.79-0.55-1.32c0-0.35,0.08-0.67,0.25-0.94s0.4-0.49,0.71-0.63s0.74-0.27,1.31-0.38
	c0.77-0.14,1.3-0.28,1.6-0.4V8.75c0-0.32-0.08-0.54-0.23-0.68c-0.16-0.13-0.45-0.2-0.88-0.2c-0.29,0-0.52,0.06-0.69,0.17
	C114.2,8.16,114.06,8.36,113.96,8.65z M116.17,9.98c-0.21,0.07-0.54,0.15-1,0.25s-0.76,0.19-0.9,0.29
	c-0.21,0.15-0.32,0.35-0.32,0.58c0,0.23,0.09,0.43,0.26,0.6s0.39,0.25,0.66,0.25c0.3,0,0.58-0.1,0.85-0.29
	c0.2-0.15,0.33-0.33,0.39-0.54c0.04-0.14,0.06-0.41,0.06-0.8V9.98z M119.36,6.75h1.54v0.91c0.2-0.31,0.47-0.57,0.81-0.76
	s0.72-0.29,1.13-0.29c0.72,0,1.34,0.28,1.84,0.85s0.76,1.36,0.76,2.37c0,1.04-0.25,1.85-0.76,2.42s-1.12,0.86-1.85,0.86
	c-0.34,0-0.66-0.07-0.93-0.21s-0.57-0.37-0.88-0.7v3.13h-1.65V6.75z M120.99,9.76c0,0.7,0.14,1.22,0.42,1.55s0.62,0.5,1.01,0.5
	c0.38,0,0.7-0.15,0.96-0.46s0.38-0.81,0.38-1.51c0-0.65-0.13-1.14-0.39-1.45s-0.59-0.47-0.97-0.47c-0.4,0-0.74,0.16-1,0.47
	S120.99,9.15,120.99,9.76z M126.69,6.75h1.54v0.91c0.2-0.31,0.47-0.57,0.81-0.76s0.72-0.29,1.13-0.29c0.72,0,1.34,0.28,1.84,0.85
	s0.76,1.36,0.76,2.37c0,1.04-0.25,1.85-0.76,2.42s-1.12,0.86-1.85,0.86c-0.34,0-0.66-0.07-0.93-0.21s-0.57-0.37-0.88-0.7v3.13h-1.65
	V6.75z M128.32,9.76c0,0.7,0.14,1.22,0.42,1.55s0.62,0.5,1.01,0.5c0.38,0,0.7-0.15,0.96-0.46s0.38-0.81,0.38-1.51
	c0-0.65-0.13-1.14-0.39-1.45s-0.59-0.47-0.97-0.47c-0.4,0-0.74,0.16-1,0.47S128.32,9.15,128.32,9.76z M140.67,6.75v1.31h-1.12v2.51
	c0,0.51,0.01,0.8,0.03,0.89s0.07,0.15,0.15,0.21s0.17,0.08,0.28,0.08c0.15,0,0.37-0.05,0.66-0.16l0.14,1.28
	c-0.38,0.16-0.82,0.25-1.3,0.25c-0.3,0-0.56-0.05-0.8-0.15s-0.41-0.23-0.52-0.39s-0.19-0.37-0.23-0.64
	c-0.04-0.19-0.05-0.58-0.05-1.16V8.06h-0.76V6.75h0.76V5.51l1.65-0.96v2.2H140.67z M141.43,9.77c0-0.55,0.13-1.08,0.41-1.59
	c0.27-0.51,0.65-0.9,1.14-1.17s1.05-0.4,1.66-0.4c0.94,0,1.71,0.31,2.31,0.92s0.9,1.38,0.9,2.32c0,0.94-0.3,1.72-0.91,2.34
	s-1.37,0.93-2.29,0.93c-0.57,0-1.12-0.13-1.63-0.39s-0.91-0.64-1.18-1.13C141.57,11.09,141.43,10.49,141.43,9.77z M143.12,9.86
	c0,0.62,0.15,1.09,0.44,1.42s0.65,0.49,1.08,0.49s0.79-0.16,1.08-0.49s0.44-0.8,0.44-1.43c0-0.61-0.15-1.08-0.44-1.41
	s-0.65-0.49-1.08-0.49s-0.79,0.16-1.08,0.49S143.12,9.24,143.12,9.86z M158.33,8.59l-1.62,0.29c-0.05-0.32-0.18-0.57-0.37-0.73
	c-0.19-0.16-0.44-0.25-0.75-0.25c-0.41,0-0.74,0.14-0.98,0.42s-0.37,0.76-0.37,1.42c0,0.74,0.12,1.26,0.37,1.56s0.58,0.46,1,0.46
	c0.31,0,0.57-0.09,0.77-0.27s0.34-0.48,0.42-0.92l1.62,0.28c-0.17,0.74-0.49,1.3-0.97,1.68s-1.12,0.57-1.92,0.57
	c-0.91,0-1.64-0.29-2.18-0.86s-0.81-1.37-0.81-2.38c0-1.03,0.27-1.83,0.81-2.4s1.28-0.86,2.2-0.86c0.76,0,1.36,0.16,1.81,0.49
	S158.13,7.92,158.33,8.59z M159.19,9.77c0-0.55,0.13-1.08,0.4-1.59s0.65-0.9,1.15-1.17s1.05-0.4,1.66-0.4
	c0.94,0,1.71,0.31,2.31,0.92s0.9,1.38,0.9,2.32c0,0.94-0.3,1.72-0.91,2.34s-1.37,0.93-2.29,0.93c-0.57,0-1.11-0.13-1.63-0.39
	s-0.91-0.64-1.18-1.13S159.19,10.49,159.19,9.77z M160.88,9.86c0,0.62,0.15,1.09,0.44,1.42s0.65,0.49,1.08,0.49s0.79-0.16,1.08-0.49
	s0.44-0.8,0.44-1.43c0-0.61-0.15-1.08-0.44-1.41s-0.65-0.49-1.08-0.49s-0.79,0.16-1.08,0.49S160.88,9.24,160.88,9.86z M172.56,12.97
	h-1.65V9.8c0-0.67-0.04-1.11-0.11-1.3s-0.18-0.35-0.34-0.46c-0.16-0.11-0.35-0.16-0.57-0.16c-0.29,0-0.54,0.08-0.77,0.23
	c-0.23,0.16-0.38,0.36-0.47,0.62s-0.13,0.73-0.13,1.43v2.82h-1.65V6.75h1.53v0.91c0.54-0.7,1.23-1.05,2.05-1.05
	c0.36,0,0.7,0.07,1,0.2s0.53,0.3,0.68,0.5s0.26,0.43,0.32,0.69c0.06,0.26,0.09,0.63,0.09,1.11V12.97z M179.89,12.97h-1.65V9.8
	c0-0.67-0.04-1.11-0.11-1.3s-0.18-0.35-0.34-0.46c-0.16-0.11-0.35-0.16-0.57-0.16c-0.29,0-0.54,0.08-0.77,0.23
	c-0.23,0.16-0.38,0.36-0.47,0.62s-0.13,0.73-0.13,1.43v2.82h-1.65V6.75h1.53v0.91c0.54-0.7,1.23-1.05,2.05-1.05
	c0.36,0,0.7,0.07,1,0.2s0.53,0.3,0.68,0.5s0.26,0.43,0.32,0.69c0.06,0.26,0.09,0.63,0.09,1.11V12.97z M185.17,10.99l1.64,0.28
	c-0.21,0.6-0.54,1.06-1,1.37s-1.02,0.47-1.71,0.47c-1.08,0-1.88-0.35-2.4-1.06c-0.41-0.57-0.62-1.28-0.62-2.14
	c0-1.03,0.27-1.84,0.81-2.42s1.22-0.88,2.04-0.88c0.93,0,1.66,0.31,2.19,0.92s0.79,1.55,0.77,2.81h-4.12
	c0.01,0.49,0.14,0.87,0.4,1.14s0.57,0.41,0.95,0.41c0.26,0,0.47-0.07,0.65-0.21S185.08,11.3,185.17,10.99z M185.26,9.33
	c-0.01-0.48-0.13-0.84-0.37-1.09c-0.23-0.25-0.52-0.37-0.86-0.37c-0.36,0-0.66,0.13-0.89,0.39s-0.35,0.62-0.35,1.07H185.26z
	 M193.66,8.59l-1.62,0.29c-0.05-0.32-0.18-0.57-0.37-0.73c-0.19-0.16-0.44-0.25-0.75-0.25c-0.41,0-0.74,0.14-0.98,0.42
	s-0.37,0.76-0.37,1.42c0,0.74,0.12,1.26,0.37,1.56s0.58,0.46,1,0.46c0.31,0,0.57-0.09,0.77-0.27s0.34-0.48,0.42-0.92l1.62,0.28
	c-0.17,0.74-0.49,1.3-0.97,1.68s-1.12,0.57-1.92,0.57c-0.91,0-1.64-0.29-2.18-0.86s-0.81-1.37-0.81-2.38c0-1.03,0.27-1.83,0.81-2.4
	s1.28-0.86,2.2-0.86c0.76,0,1.36,0.16,1.81,0.49S193.47,7.92,193.66,8.59z M197.76,6.75v1.31h-1.12v2.51c0,0.51,0.01,0.8,0.03,0.89
	s0.07,0.15,0.15,0.21s0.17,0.08,0.28,0.08c0.15,0,0.37-0.05,0.66-0.16l0.14,1.28c-0.38,0.16-0.82,0.25-1.3,0.25
	c-0.3,0-0.56-0.05-0.8-0.15s-0.41-0.23-0.52-0.39s-0.19-0.37-0.23-0.64c-0.04-0.19-0.05-0.58-0.05-1.16V8.06h-0.76V6.75h0.76V5.51
	l1.65-0.96v2.2H197.76z M205.51,6.75v1.31h-1.12v2.51c0,0.51,0.01,0.8,0.03,0.89s0.07,0.15,0.15,0.21s0.17,0.08,0.28,0.08
	c0.15,0,0.37-0.05,0.66-0.16l0.14,1.28c-0.38,0.16-0.82,0.25-1.3,0.25c-0.3,0-0.56-0.05-0.8-0.15s-0.41-0.23-0.52-0.39
	s-0.19-0.37-0.23-0.64c-0.04-0.19-0.05-0.58-0.05-1.16V8.06h-0.76V6.75h0.76V5.51l1.65-0.96v2.2H205.51z M208.3,4.38v3.16
	c0.53-0.62,1.17-0.93,1.9-0.93c0.38,0,0.72,0.07,1.03,0.21s0.53,0.32,0.69,0.54s0.26,0.46,0.32,0.73c0.06,0.27,0.08,0.68,0.08,1.24
	v3.65h-1.65V9.69c0-0.65-0.03-1.07-0.09-1.24s-0.17-0.32-0.33-0.42c-0.16-0.1-0.36-0.16-0.59-0.16c-0.27,0-0.52,0.07-0.73,0.2
	c-0.21,0.13-0.37,0.33-0.47,0.6s-0.15,0.66-0.15,1.19v3.12h-1.65V4.38H208.3z M217.59,10.99l1.64,0.28c-0.21,0.6-0.54,1.06-1,1.37
	s-1.02,0.47-1.71,0.47c-1.08,0-1.88-0.35-2.4-1.06c-0.41-0.57-0.62-1.28-0.62-2.14c0-1.03,0.27-1.84,0.81-2.42s1.22-0.88,2.04-0.88
	c0.93,0,1.66,0.31,2.19,0.92s0.79,1.55,0.77,2.81h-4.12c0.01,0.49,0.14,0.87,0.4,1.14s0.57,0.41,0.95,0.41
	c0.26,0,0.47-0.07,0.65-0.21S217.5,11.3,217.59,10.99z M217.68,9.33c-0.01-0.48-0.13-0.84-0.37-1.09c-0.23-0.25-0.52-0.37-0.86-0.37
	c-0.36,0-0.66,0.13-0.89,0.39s-0.35,0.62-0.35,1.07H217.68z M224.37,6.75h1.54v0.91c0.2-0.31,0.47-0.57,0.81-0.76
	s0.72-0.29,1.13-0.29c0.72,0,1.34,0.28,1.84,0.85s0.76,1.36,0.76,2.37c0,1.04-0.25,1.85-0.76,2.42s-1.12,0.86-1.85,0.86
	c-0.34,0-0.66-0.07-0.93-0.21s-0.57-0.37-0.88-0.7v3.13h-1.65V6.75z M226,9.76c0,0.7,0.14,1.22,0.42,1.55s0.62,0.5,1.01,0.5
	c0.38,0,0.7-0.15,0.96-0.46s0.38-0.81,0.38-1.51c0-0.65-0.13-1.14-0.39-1.45s-0.59-0.47-0.97-0.47c-0.4,0-0.74,0.16-1,0.47
	S226,9.15,226,9.76z M235.35,10.99l1.64,0.28c-0.21,0.6-0.54,1.06-1,1.37s-1.02,0.47-1.71,0.47c-1.08,0-1.88-0.35-2.4-1.06
	c-0.41-0.57-0.62-1.28-0.62-2.14c0-1.03,0.27-1.84,0.81-2.42s1.22-0.88,2.04-0.88c0.93,0,1.66,0.31,2.19,0.92s0.79,1.55,0.77,2.81
	h-4.12c0.01,0.49,0.14,0.87,0.4,1.14s0.57,0.41,0.95,0.41c0.26,0,0.47-0.07,0.65-0.21S235.26,11.3,235.35,10.99z M235.44,9.33
	c-0.01-0.48-0.13-0.84-0.37-1.09c-0.23-0.25-0.52-0.37-0.86-0.37c-0.36,0-0.66,0.13-0.89,0.39s-0.35,0.62-0.35,1.07H235.44z
	 M238.04,9.77c0-0.55,0.13-1.08,0.4-1.59s0.65-0.9,1.15-1.17s1.05-0.4,1.66-0.4c0.94,0,1.71,0.31,2.31,0.92s0.9,1.38,0.9,2.32
	c0,0.94-0.3,1.72-0.91,2.34s-1.37,0.93-2.29,0.93c-0.57,0-1.11-0.13-1.63-0.39s-0.91-0.64-1.18-1.13S238.04,10.49,238.04,9.77z
	 M239.72,9.86c0,0.62,0.15,1.09,0.44,1.42s0.65,0.49,1.08,0.49s0.79-0.16,1.08-0.49s0.44-0.8,0.44-1.43c0-0.61-0.15-1.08-0.44-1.41
	s-0.65-0.49-1.08-0.49s-0.79,0.16-1.08,0.49S239.72,9.24,239.72,9.86z M245.7,6.75h1.54v0.91c0.2-0.31,0.47-0.57,0.81-0.76
	s0.72-0.29,1.13-0.29c0.72,0,1.34,0.28,1.84,0.85s0.76,1.36,0.76,2.37c0,1.04-0.25,1.85-0.76,2.42s-1.12,0.86-1.85,0.86
	c-0.34,0-0.66-0.07-0.93-0.21s-0.57-0.37-0.88-0.7v3.13h-1.65V6.75z M247.33,9.76c0,0.7,0.14,1.22,0.42,1.55s0.62,0.5,1.01,0.5
	c0.38,0,0.7-0.15,0.96-0.46s0.38-0.81,0.38-1.51c0-0.65-0.13-1.14-0.39-1.45s-0.59-0.47-0.97-0.47c-0.4,0-0.74,0.16-1,0.47
	S247.33,9.15,247.33,9.76z M253.08,12.97V4.38h1.65v8.59H253.08z M260.02,10.99l1.64,0.28c-0.21,0.6-0.54,1.06-1,1.37
	s-1.02,0.47-1.71,0.47c-1.08,0-1.88-0.35-2.4-1.06c-0.41-0.57-0.62-1.28-0.62-2.14c0-1.03,0.27-1.84,0.81-2.42s1.22-0.88,2.04-0.88
	c0.93,0,1.66,0.31,2.19,0.92s0.79,1.55,0.77,2.81h-4.12c0.01,0.49,0.14,0.87,0.4,1.14s0.57,0.41,0.95,0.41
	c0.26,0,0.47-0.07,0.65-0.21S259.93,11.3,260.02,10.99z M260.11,9.33c-0.01-0.48-0.13-0.84-0.37-1.09
	c-0.23-0.25-0.52-0.37-0.86-0.37c-0.36,0-0.66,0.13-0.89,0.39s-0.35,0.62-0.35,1.07H260.11z M6.18,27.37l-1.97-6.22h1.6l1.17,4.08
	l1.07-4.08h1.59l1.04,4.08l1.19-4.08h1.62l-2,6.22H9.9l-1.07-4l-1.05,4H6.18z M14.35,20.31v-1.52H16v1.52H14.35z M14.35,27.37v-6.22
	H16v6.22H14.35z M20.54,21.15v1.31h-1.12v2.51c0,0.51,0.01,0.8,0.03,0.89s0.07,0.15,0.15,0.21s0.17,0.08,0.28,0.08
	c0.15,0,0.37-0.05,0.66-0.16l0.14,1.28c-0.38,0.16-0.82,0.25-1.3,0.25c-0.3,0-0.56-0.05-0.8-0.15s-0.41-0.23-0.52-0.39
	s-0.19-0.37-0.23-0.64c-0.04-0.19-0.05-0.58-0.05-1.16v-2.71H17v-1.31h0.76v-1.24l1.65-0.96v2.2H20.54z M23.32,18.78v3.16
	c0.53-0.62,1.17-0.93,1.9-0.93c0.38,0,0.72,0.07,1.03,0.21s0.53,0.32,0.69,0.54s0.26,0.46,0.32,0.73s0.08,0.68,0.08,1.24v3.65h-1.65
	v-3.29c0-0.65-0.03-1.07-0.09-1.24s-0.17-0.32-0.33-0.42s-0.36-0.16-0.59-0.16c-0.27,0-0.52,0.07-0.73,0.2s-0.37,0.33-0.47,0.6
	s-0.15,0.66-0.15,1.19v3.12h-1.65v-8.59H23.32z M33.9,27.37v-8.59h1.65v8.59H33.9z M36.86,24.17c0-0.55,0.13-1.08,0.4-1.59
	s0.65-0.9,1.15-1.17s1.05-0.4,1.66-0.4c0.94,0,1.71,0.31,2.31,0.92s0.9,1.38,0.9,2.32c0,0.94-0.3,1.72-0.91,2.34
	s-1.37,0.93-2.29,0.93c-0.57,0-1.11-0.13-1.63-0.39s-0.91-0.64-1.18-1.13S36.86,24.89,36.86,24.17z M38.55,24.26
	c0,0.62,0.15,1.09,0.44,1.42s0.65,0.49,1.08,0.49s0.79-0.16,1.08-0.49s0.44-0.8,0.44-1.43c0-0.61-0.15-1.08-0.44-1.41
	s-0.65-0.49-1.08-0.49s-0.79,0.16-1.08,0.49S38.55,23.64,38.55,24.26z M49.99,22.99l-1.62,0.29c-0.05-0.32-0.18-0.57-0.37-0.73
	s-0.44-0.25-0.75-0.25c-0.41,0-0.74,0.14-0.98,0.42s-0.37,0.76-0.37,1.42c0,0.74,0.12,1.26,0.37,1.56s0.58,0.46,1,0.46
	c0.31,0,0.57-0.09,0.77-0.27s0.34-0.48,0.42-0.92l1.62,0.28c-0.17,0.74-0.49,1.3-0.97,1.68s-1.12,0.57-1.92,0.57
	c-0.91,0-1.64-0.29-2.18-0.86s-0.81-1.37-0.81-2.38c0-1.03,0.27-1.83,0.81-2.4s1.28-0.86,2.2-0.86c0.76,0,1.36,0.16,1.81,0.49
	S49.8,22.32,49.99,22.99z M52.47,23.05l-1.49-0.27c0.17-0.6,0.46-1.05,0.87-1.34s1.02-0.43,1.83-0.43c0.73,0,1.28,0.09,1.64,0.26
	s0.61,0.39,0.76,0.66s0.22,0.76,0.22,1.47l-0.02,1.92c0,0.55,0.03,0.95,0.08,1.21s0.15,0.54,0.3,0.83h-1.63
	c-0.04-0.11-0.1-0.27-0.16-0.49c-0.03-0.1-0.05-0.16-0.06-0.19c-0.28,0.27-0.58,0.48-0.9,0.62s-0.66,0.21-1.03,0.21
	c-0.64,0-1.15-0.17-1.51-0.52s-0.55-0.79-0.55-1.32c0-0.35,0.08-0.67,0.25-0.94s0.4-0.49,0.71-0.63s0.74-0.27,1.31-0.38
	c0.77-0.14,1.3-0.28,1.6-0.4v-0.16c0-0.32-0.08-0.54-0.23-0.68s-0.45-0.2-0.88-0.2c-0.29,0-0.52,0.06-0.69,0.17
	S52.57,22.76,52.47,23.05z M54.68,24.38c-0.21,0.07-0.54,0.15-1,0.25s-0.76,0.19-0.9,0.29c-0.21,0.15-0.32,0.35-0.32,0.58
	c0,0.23,0.09,0.43,0.26,0.6s0.39,0.25,0.66,0.25c0.3,0,0.58-0.1,0.85-0.29c0.2-0.15,0.33-0.33,0.39-0.54
	c0.04-0.14,0.06-0.41,0.06-0.8V24.38z M57.92,27.37v-8.59h1.65v8.59H57.92z M67.38,23.05l-1.49-0.27c0.17-0.6,0.46-1.05,0.87-1.34
	s1.02-0.43,1.83-0.43c0.73,0,1.28,0.09,1.64,0.26s0.61,0.39,0.76,0.66s0.22,0.76,0.22,1.47l-0.02,1.92c0,0.55,0.03,0.95,0.08,1.21
	s0.15,0.54,0.3,0.83h-1.63c-0.04-0.11-0.1-0.27-0.16-0.49c-0.03-0.1-0.05-0.16-0.06-0.19c-0.28,0.27-0.58,0.48-0.9,0.62
	s-0.66,0.21-1.03,0.21c-0.64,0-1.15-0.17-1.51-0.52s-0.55-0.79-0.55-1.32c0-0.35,0.08-0.67,0.25-0.94s0.4-0.49,0.71-0.63
	s0.74-0.27,1.31-0.38c0.77-0.14,1.3-0.28,1.6-0.4v-0.16c0-0.32-0.08-0.54-0.23-0.68s-0.45-0.2-0.88-0.2c-0.29,0-0.52,0.06-0.69,0.17
	S67.48,22.76,67.38,23.05z M69.58,24.38c-0.21,0.07-0.54,0.15-1,0.25s-0.76,0.19-0.9,0.29c-0.21,0.15-0.32,0.35-0.32,0.58
	c0,0.23,0.09,0.43,0.26,0.6s0.39,0.25,0.66,0.25c0.3,0,0.58-0.1,0.85-0.29c0.2-0.15,0.33-0.33,0.39-0.54
	c0.04-0.14,0.06-0.41,0.06-0.8V24.38z M74.4,27.37h-1.65v-6.22h1.53v0.88c0.26-0.42,0.5-0.69,0.71-0.83s0.45-0.2,0.71-0.2
	c0.38,0,0.74,0.1,1.08,0.31l-0.51,1.44c-0.28-0.18-0.54-0.27-0.77-0.27c-0.23,0-0.43,0.06-0.59,0.19s-0.29,0.36-0.38,0.69
	s-0.14,1.03-0.14,2.09V27.37z M80.34,21.15v1.31h-1.12v2.51c0,0.51,0.01,0.8,0.03,0.89s0.07,0.15,0.15,0.21s0.17,0.08,0.28,0.08
	c0.15,0,0.37-0.05,0.66-0.16l0.14,1.28c-0.38,0.16-0.82,0.25-1.3,0.25c-0.3,0-0.56-0.05-0.8-0.15s-0.41-0.23-0.52-0.39
	s-0.19-0.37-0.23-0.64c-0.04-0.19-0.05-0.58-0.05-1.16v-2.71h-0.76v-1.31h0.76v-1.24l1.65-0.96v2.2H80.34z M81.48,20.31v-1.52h1.65
	v1.52H81.48z M81.48,27.37v-6.22h1.65v6.22H81.48z M84.24,25.6l1.65-0.25c0.07,0.32,0.21,0.56,0.43,0.73s0.52,0.25,0.9,0.25
	c0.43,0,0.75-0.08,0.96-0.23c0.14-0.11,0.22-0.26,0.22-0.44c0-0.12-0.04-0.23-0.12-0.31c-0.08-0.08-0.27-0.15-0.55-0.22
	c-1.33-0.29-2.17-0.56-2.53-0.8c-0.49-0.34-0.74-0.8-0.74-1.4c0-0.54,0.21-0.99,0.64-1.36s1.09-0.55,1.98-0.55
	c0.85,0,1.48,0.14,1.9,0.42s0.7,0.69,0.86,1.23l-1.55,0.29c-0.07-0.24-0.19-0.43-0.38-0.56s-0.45-0.19-0.79-0.19
	c-0.43,0-0.74,0.06-0.93,0.18c-0.12,0.09-0.19,0.2-0.19,0.33c0,0.12,0.05,0.22,0.16,0.3c0.15,0.11,0.66,0.26,1.54,0.46
	s1.49,0.44,1.84,0.73c0.34,0.29,0.52,0.7,0.52,1.22c0,0.57-0.24,1.06-0.71,1.47s-1.18,0.62-2.12,0.62c-0.85,0-1.52-0.17-2.01-0.52
	S84.39,26.19,84.24,25.6z M94.35,21.15v1.31h-1.12v2.51c0,0.51,0.01,0.8,0.03,0.89s0.07,0.15,0.15,0.21s0.17,0.08,0.28,0.08
	c0.15,0,0.37-0.05,0.66-0.16l0.14,1.28c-0.38,0.16-0.82,0.25-1.3,0.25c-0.3,0-0.56-0.05-0.8-0.15s-0.41-0.23-0.52-0.39
	s-0.19-0.37-0.23-0.64c-0.04-0.19-0.05-0.58-0.05-1.16v-2.71h-0.76v-1.31h0.76v-1.24l1.65-0.96v2.2H94.35z M94.91,25.6l1.65-0.25
	c0.07,0.32,0.21,0.56,0.43,0.73s0.52,0.25,0.9,0.25c0.43,0,0.75-0.08,0.96-0.23c0.14-0.11,0.22-0.26,0.22-0.44
	c0-0.12-0.04-0.23-0.12-0.31c-0.08-0.08-0.27-0.15-0.55-0.22c-1.33-0.29-2.17-0.56-2.53-0.8c-0.49-0.34-0.74-0.8-0.74-1.4
	c0-0.54,0.21-0.99,0.64-1.36s1.09-0.55,1.98-0.55c0.85,0,1.48,0.14,1.9,0.42s0.7,0.69,0.86,1.23l-1.55,0.29
	c-0.07-0.24-0.19-0.43-0.38-0.56s-0.45-0.19-0.79-0.19c-0.43,0-0.74,0.06-0.93,0.18c-0.12,0.09-0.19,0.2-0.19,0.33
	c0,0.12,0.05,0.22,0.16,0.3c0.15,0.11,0.66,0.26,1.54,0.46s1.49,0.44,1.84,0.73c0.34,0.29,0.52,0.7,0.52,1.22
	c0,0.57-0.24,1.06-0.71,1.47s-1.18,0.62-2.12,0.62c-0.85,0-1.52-0.17-2.01-0.52S95.06,26.19,94.91,25.6z M102.16,27.37v-1.65h1.65
	v1.65H102.16z M110.35,27.37v-8.59h1.73v8.59H110.35z M119.39,27.37h-1.65V24.2c0-0.67-0.04-1.11-0.11-1.3s-0.18-0.35-0.34-0.46
	s-0.35-0.16-0.57-0.16c-0.29,0-0.54,0.08-0.77,0.23s-0.38,0.36-0.47,0.62s-0.13,0.73-0.13,1.43v2.82h-1.65v-6.22h1.53v0.91
	c0.54-0.7,1.23-1.05,2.05-1.05c0.36,0,0.7,0.07,1,0.2s0.53,0.3,0.68,0.5s0.26,0.43,0.32,0.69s0.09,0.63,0.09,1.11V27.37z
	 M123.91,21.15v1.31h-1.12v2.51c0,0.51,0.01,0.8,0.03,0.89s0.07,0.15,0.15,0.21s0.17,0.08,0.28,0.08c0.15,0,0.37-0.05,0.66-0.16
	l0.14,1.28c-0.38,0.16-0.82,0.25-1.3,0.25c-0.3,0-0.56-0.05-0.8-0.15s-0.41-0.23-0.52-0.39s-0.19-0.37-0.23-0.64
	c-0.04-0.19-0.05-0.58-0.05-1.16v-2.71h-0.76v-1.31h0.76v-1.24l1.65-0.96v2.2H123.91z M126.63,27.37h-1.65v-6.22h1.53v0.88
	c0.26-0.42,0.5-0.69,0.71-0.83s0.45-0.2,0.71-0.2c0.38,0,0.74,0.1,1.08,0.31l-0.51,1.44c-0.28-0.18-0.54-0.27-0.77-0.27
	c-0.23,0-0.43,0.06-0.59,0.19s-0.29,0.36-0.38,0.69s-0.14,1.03-0.14,2.09V27.37z M129.34,24.17c0-0.55,0.13-1.08,0.4-1.59
	s0.65-0.9,1.15-1.17s1.05-0.4,1.66-0.4c0.94,0,1.71,0.31,2.31,0.92s0.9,1.38,0.9,2.32c0,0.94-0.3,1.72-0.91,2.34
	s-1.37,0.93-2.29,0.93c-0.57,0-1.11-0.13-1.63-0.39s-0.91-0.64-1.18-1.13S129.34,24.89,129.34,24.17z M131.03,24.26
	c0,0.62,0.15,1.09,0.44,1.42s0.65,0.49,1.08,0.49s0.79-0.16,1.08-0.49s0.44-0.8,0.44-1.43c0-0.61-0.15-1.08-0.44-1.41
	s-0.65-0.49-1.08-0.49s-0.79,0.16-1.08,0.49S131.03,23.64,131.03,24.26z M142.76,27.37h-1.53v-0.91c-0.25,0.36-0.55,0.62-0.9,0.79
	s-0.69,0.26-1.05,0.26c-0.71,0-1.33-0.29-1.84-0.86s-0.76-1.38-0.76-2.41c0-1.05,0.25-1.86,0.74-2.41s1.12-0.82,1.88-0.82
	c0.7,0,1.3,0.29,1.8,0.87v-3.09h1.65V27.37z M138.36,24.13c0,0.66,0.09,1.14,0.28,1.44c0.27,0.43,0.64,0.64,1.11,0.64
	c0.38,0,0.7-0.16,0.97-0.48s0.4-0.8,0.4-1.44c0-0.71-0.13-1.23-0.39-1.54s-0.59-0.47-0.99-0.47c-0.39,0-0.72,0.16-0.98,0.47
	S138.36,23.51,138.36,24.13z M148.48,27.37v-0.93c-0.23,0.33-0.52,0.59-0.89,0.79s-0.76,0.29-1.17,0.29c-0.42,0-0.79-0.09-1.12-0.28
	s-0.57-0.44-0.72-0.77s-0.22-0.79-0.22-1.38v-3.94h1.65v2.86c0,0.88,0.03,1.41,0.09,1.61s0.17,0.35,0.33,0.47s0.36,0.17,0.61,0.17
	c0.28,0,0.53-0.08,0.76-0.23s0.38-0.35,0.46-0.57s0.12-0.79,0.12-1.68v-2.62h1.65v6.22H148.48z M157.14,22.99l-1.62,0.29
	c-0.05-0.32-0.18-0.57-0.37-0.73s-0.44-0.25-0.75-0.25c-0.41,0-0.74,0.14-0.98,0.42s-0.37,0.76-0.37,1.42
	c0,0.74,0.12,1.26,0.37,1.56s0.58,0.46,1,0.46c0.31,0,0.57-0.09,0.77-0.27s0.34-0.48,0.42-0.92l1.62,0.28
	c-0.17,0.74-0.49,1.3-0.97,1.68s-1.12,0.57-1.92,0.57c-0.91,0-1.64-0.29-2.18-0.86s-0.81-1.37-0.81-2.38c0-1.03,0.27-1.83,0.81-2.4
	s1.28-0.86,2.2-0.86c0.76,0,1.36,0.16,1.81,0.49S156.94,22.32,157.14,22.99z M158.38,20.31v-1.52h1.65v1.52H158.38z M158.38,27.37
	v-6.22h1.65v6.22H158.38z M167.38,27.37h-1.65V24.2c0-0.67-0.04-1.11-0.11-1.3s-0.18-0.35-0.34-0.46s-0.35-0.16-0.57-0.16
	c-0.29,0-0.54,0.08-0.77,0.23s-0.38,0.36-0.47,0.62s-0.13,0.73-0.13,1.43v2.82h-1.65v-6.22h1.53v0.91c0.54-0.7,1.23-1.05,2.05-1.05
	c0.36,0,0.7,0.07,1,0.2s0.53,0.3,0.68,0.5s0.26,0.43,0.32,0.69s0.09,0.63,0.09,1.11V27.37z M168.9,27.78l1.88,0.23
	c0.03,0.22,0.1,0.37,0.22,0.45c0.16,0.12,0.4,0.18,0.74,0.18c0.43,0,0.75-0.06,0.97-0.19c0.14-0.09,0.25-0.22,0.33-0.42
	c0.05-0.14,0.08-0.39,0.08-0.76v-0.91c-0.49,0.67-1.11,1.01-1.86,1.01c-0.84,0-1.5-0.35-1.99-1.06c-0.38-0.56-0.57-1.25-0.57-2.09
	c0-1.04,0.25-1.84,0.75-2.39s1.13-0.83,1.87-0.83c0.77,0,1.4,0.34,1.9,1.01v-0.87h1.54v5.58c0,0.73-0.06,1.28-0.18,1.65
	s-0.29,0.65-0.51,0.86s-0.51,0.37-0.88,0.49s-0.83,0.18-1.39,0.18c-1.05,0-1.8-0.18-2.24-0.54s-0.66-0.82-0.66-1.37
	C168.89,27.93,168.89,27.86,168.9,27.78z M170.37,24.13c0,0.66,0.13,1.14,0.38,1.45s0.57,0.46,0.95,0.46c0.4,0,0.74-0.16,1.02-0.47
	s0.42-0.78,0.42-1.4c0-0.64-0.13-1.12-0.4-1.44s-0.6-0.47-1.01-0.47c-0.39,0-0.72,0.15-0.98,0.46S170.37,23.5,170.37,24.13z
	 M186.93,27.37h-1.65V24.2c0-0.67-0.04-1.11-0.11-1.3s-0.18-0.35-0.34-0.46s-0.35-0.16-0.57-0.16c-0.29,0-0.54,0.08-0.77,0.23
	s-0.38,0.36-0.47,0.62s-0.13,0.73-0.13,1.43v2.82h-1.65v-6.22h1.53v0.91c0.54-0.7,1.23-1.05,2.05-1.05c0.36,0,0.7,0.07,1,0.2
	s0.53,0.3,0.68,0.5s0.26,0.43,0.32,0.69s0.09,0.63,0.09,1.11V27.37z M192.21,25.39l1.64,0.28c-0.21,0.6-0.54,1.06-1,1.37
	s-1.02,0.47-1.71,0.47c-1.08,0-1.88-0.35-2.4-1.06c-0.41-0.57-0.62-1.28-0.62-2.14c0-1.03,0.27-1.84,0.81-2.42s1.22-0.88,2.04-0.88
	c0.93,0,1.66,0.31,2.19,0.92s0.79,1.55,0.77,2.81h-4.12c0.01,0.49,0.14,0.87,0.4,1.14s0.57,0.41,0.95,0.41
	c0.26,0,0.47-0.07,0.65-0.21S192.12,25.7,192.21,25.39z M192.3,23.73c-0.01-0.48-0.13-0.84-0.37-1.09s-0.52-0.37-0.86-0.37
	c-0.36,0-0.66,0.13-0.89,0.39s-0.35,0.62-0.35,1.07H192.3z M196.44,27.37l-1.97-6.22h1.6l1.17,4.08l1.07-4.08h1.59l1.04,4.08
	l1.19-4.08h1.62l-2,6.22h-1.58l-1.07-4l-1.05,4H196.44z M209.38,21.15h1.52V22c0.54-0.66,1.19-0.99,1.94-0.99
	c0.4,0,0.74,0.08,1.04,0.25s0.53,0.41,0.72,0.74c0.27-0.33,0.57-0.58,0.88-0.74s0.65-0.25,1.01-0.25c0.46,0,0.84,0.09,1.16,0.28
	s0.55,0.46,0.71,0.82c0.11,0.27,0.17,0.7,0.17,1.29v3.98h-1.65v-3.56c0-0.62-0.06-1.02-0.17-1.2c-0.15-0.23-0.39-0.35-0.7-0.35
	c-0.23,0-0.45,0.07-0.65,0.21s-0.35,0.35-0.44,0.62s-0.13,0.7-0.13,1.29v2.99h-1.65v-3.41c0-0.61-0.03-1-0.09-1.17
	s-0.15-0.31-0.27-0.39s-0.29-0.13-0.5-0.13c-0.25,0-0.48,0.07-0.69,0.21s-0.35,0.33-0.44,0.59s-0.13,0.69-0.13,1.28v3.02h-1.65
	V21.15z M224.27,27.37v-0.93c-0.23,0.33-0.52,0.59-0.89,0.79s-0.76,0.29-1.17,0.29c-0.42,0-0.79-0.09-1.12-0.28
	s-0.57-0.44-0.72-0.77s-0.22-0.79-0.22-1.38v-3.94h1.65v2.86c0,0.88,0.03,1.41,0.09,1.61s0.17,0.35,0.33,0.47s0.36,0.17,0.61,0.17
	c0.28,0,0.53-0.08,0.76-0.23s0.38-0.35,0.46-0.57s0.12-0.79,0.12-1.68v-2.62h1.65v6.22H224.27z M226.93,25.6l1.65-0.25
	c0.07,0.32,0.21,0.56,0.43,0.73s0.52,0.25,0.9,0.25c0.43,0,0.75-0.08,0.96-0.23c0.14-0.11,0.22-0.26,0.22-0.44
	c0-0.12-0.04-0.23-0.12-0.31c-0.08-0.08-0.27-0.15-0.55-0.22c-1.33-0.29-2.17-0.56-2.53-0.8c-0.49-0.34-0.74-0.8-0.74-1.4
	c0-0.54,0.21-0.99,0.64-1.36s1.09-0.55,1.98-0.55c0.85,0,1.48,0.14,1.9,0.42s0.7,0.69,0.86,1.23l-1.55,0.29
	c-0.07-0.24-0.19-0.43-0.38-0.56s-0.45-0.19-0.79-0.19c-0.43,0-0.74,0.06-0.93,0.18c-0.12,0.09-0.19,0.2-0.19,0.33
	c0,0.12,0.05,0.22,0.16,0.3c0.15,0.11,0.66,0.26,1.54,0.46s1.49,0.44,1.84,0.73c0.34,0.29,0.52,0.7,0.52,1.22
	c0,0.57-0.24,1.06-0.71,1.47s-1.18,0.62-2.12,0.62c-0.85,0-1.52-0.17-2.01-0.52S227.08,26.19,226.93,25.6z M234.18,20.31v-1.52h1.65
	v1.52H234.18z M234.18,27.37v-6.22h1.65v6.22H234.18z M242.94,22.99l-1.62,0.29c-0.05-0.32-0.18-0.57-0.37-0.73
	s-0.44-0.25-0.75-0.25c-0.41,0-0.74,0.14-0.98,0.42s-0.37,0.76-0.37,1.42c0,0.74,0.12,1.26,0.37,1.56s0.58,0.46,1,0.46
	c0.31,0,0.57-0.09,0.77-0.27s0.34-0.48,0.42-0.92l1.62,0.28c-0.17,0.74-0.49,1.3-0.97,1.68s-1.12,0.57-1.92,0.57
	c-0.91,0-1.64-0.29-2.18-0.86s-0.81-1.37-0.81-2.38c0-1.03,0.27-1.83,0.81-2.4s1.28-0.86,2.2-0.86c0.76,0,1.36,0.16,1.81,0.49
	S242.74,22.32,242.94,22.99z M249.01,27.37v-8.59h1.65v3.09c0.51-0.58,1.11-0.87,1.8-0.87c0.76,0,1.38,0.27,1.88,0.82
	s0.74,1.34,0.74,2.36c0,1.06-0.25,1.88-0.76,2.46s-1.12,0.86-1.84,0.86c-0.36,0-0.71-0.09-1.05-0.27s-0.64-0.44-0.89-0.79v0.91
	H249.01z M250.65,24.13c0,0.64,0.1,1.12,0.3,1.43c0.29,0.44,0.66,0.66,1.14,0.66c0.36,0,0.67-0.16,0.93-0.47s0.38-0.8,0.38-1.47
	c0-0.71-0.13-1.22-0.39-1.54s-0.59-0.47-0.99-0.47c-0.39,0-0.72,0.15-0.98,0.46S250.65,23.5,250.65,24.13z M255.63,21.15h1.75
	l1.49,4.42l1.45-4.42h1.71l-2.2,5.99l-0.39,1.08c-0.14,0.36-0.28,0.64-0.41,0.83s-0.28,0.35-0.45,0.47s-0.38,0.21-0.63,0.28
	s-0.53,0.1-0.84,0.1c-0.32,0-0.63-0.03-0.93-0.1l-0.15-1.29c0.26,0.05,0.49,0.08,0.7,0.08c0.38,0,0.67-0.11,0.85-0.34
	s0.32-0.51,0.42-0.86L255.63,21.15z M10.44,37.39l-1.62,0.29c-0.05-0.32-0.18-0.57-0.37-0.73S8,36.7,7.69,36.7
	c-0.41,0-0.74,0.14-0.98,0.42s-0.37,0.76-0.37,1.42c0,0.74,0.12,1.26,0.37,1.56s0.58,0.46,1,0.46c0.31,0,0.57-0.09,0.77-0.27
	s0.34-0.48,0.42-0.92l1.62,0.28c-0.17,0.74-0.49,1.3-0.97,1.68s-1.12,0.57-1.92,0.57c-0.91,0-1.64-0.29-2.18-0.86
	s-0.81-1.37-0.81-2.38c0-1.03,0.27-1.83,0.81-2.4s1.28-0.86,2.2-0.86c0.76,0,1.36,0.16,1.81,0.49S10.25,36.72,10.44,37.39z
	 M11.31,38.57c0-0.55,0.13-1.08,0.4-1.59s0.65-0.9,1.15-1.17s1.05-0.4,1.66-0.4c0.94,0,1.71,0.31,2.31,0.92s0.9,1.38,0.9,2.32
	c0,0.94-0.3,1.72-0.91,2.34s-1.37,0.93-2.29,0.93c-0.57,0-1.11-0.13-1.63-0.39s-0.91-0.64-1.18-1.13S11.31,39.29,11.31,38.57z
	 M13,38.66c0,0.62,0.15,1.09,0.44,1.42s0.65,0.49,1.08,0.49s0.79-0.16,1.08-0.49s0.44-0.8,0.44-1.43c0-0.61-0.15-1.08-0.44-1.41
	s-0.65-0.49-1.08-0.49s-0.79,0.16-1.08,0.49S13,38.04,13,38.66z M24.68,41.77h-1.65V38.6c0-0.67-0.04-1.11-0.11-1.3
	s-0.18-0.35-0.34-0.46s-0.35-0.16-0.57-0.16c-0.29,0-0.54,0.08-0.77,0.23s-0.38,0.36-0.47,0.62s-0.13,0.73-0.13,1.43v2.82h-1.65
	v-6.22h1.53v0.91c0.54-0.7,1.23-1.05,2.05-1.05c0.36,0,0.7,0.07,1,0.2s0.53,0.3,0.68,0.5s0.26,0.43,0.32,0.69s0.09,0.63,0.09,1.11
	V41.77z M32.01,41.77h-1.65V38.6c0-0.67-0.04-1.11-0.11-1.3s-0.18-0.35-0.34-0.46s-0.35-0.16-0.57-0.16c-0.29,0-0.54,0.08-0.77,0.23
	s-0.38,0.36-0.47,0.62s-0.13,0.73-0.13,1.43v2.82h-1.65v-6.22h1.53v0.91c0.54-0.7,1.23-1.05,2.05-1.05c0.36,0,0.7,0.07,1,0.2
	s0.53,0.3,0.68,0.5s0.26,0.43,0.32,0.69s0.09,0.63,0.09,1.11V41.77z M37.28,39.79l1.64,0.28c-0.21,0.6-0.54,1.06-1,1.37
	s-1.02,0.47-1.71,0.47c-1.08,0-1.88-0.35-2.4-1.06c-0.41-0.57-0.62-1.28-0.62-2.14c0-1.03,0.27-1.84,0.81-2.42s1.22-0.88,2.04-0.88
	c0.93,0,1.66,0.31,2.19,0.92s0.79,1.55,0.77,2.81h-4.12c0.01,0.49,0.14,0.87,0.4,1.14s0.57,0.41,0.95,0.41
	c0.26,0,0.47-0.07,0.65-0.21S37.19,40.11,37.28,39.79z M37.38,38.13c-0.01-0.48-0.13-0.84-0.37-1.09s-0.52-0.37-0.86-0.37
	c-0.36,0-0.66,0.13-0.89,0.39s-0.35,0.62-0.35,1.07H37.38z M45.78,37.39l-1.62,0.29c-0.05-0.32-0.18-0.57-0.37-0.73
	s-0.44-0.25-0.75-0.25c-0.41,0-0.74,0.14-0.98,0.42s-0.37,0.76-0.37,1.42c0,0.74,0.12,1.26,0.37,1.56s0.58,0.46,1,0.46
	c0.31,0,0.57-0.09,0.77-0.27s0.34-0.48,0.42-0.92l1.62,0.28c-0.17,0.74-0.49,1.3-0.97,1.68s-1.12,0.57-1.92,0.57
	c-0.91,0-1.64-0.29-2.18-0.86s-0.81-1.37-0.81-2.38c0-1.03,0.27-1.83,0.81-2.4s1.28-0.86,2.2-0.86c0.76,0,1.36,0.16,1.81,0.49
	S45.58,36.72,45.78,37.39z M49.88,35.55v1.31h-1.12v2.51c0,0.51,0.01,0.8,0.03,0.89s0.07,0.15,0.15,0.21s0.17,0.08,0.28,0.08
	c0.15,0,0.37-0.05,0.66-0.16l0.14,1.28c-0.38,0.16-0.82,0.25-1.3,0.25c-0.3,0-0.56-0.05-0.8-0.15s-0.41-0.23-0.52-0.39
	s-0.19-0.37-0.23-0.64c-0.04-0.19-0.05-0.58-0.05-1.16v-2.71h-0.76v-1.31h0.76v-1.24l1.65-0.96v2.2H49.88z M51.02,34.71v-1.52h1.65
	v1.52H51.02z M51.02,41.77v-6.22h1.65v6.22H51.02z M60.02,41.77h-1.65V38.6c0-0.67-0.04-1.11-0.11-1.3s-0.18-0.35-0.34-0.46
	s-0.35-0.16-0.57-0.16c-0.29,0-0.54,0.08-0.77,0.23s-0.38,0.36-0.47,0.62s-0.13,0.73-0.13,1.43v2.82h-1.65v-6.22h1.53v0.91
	c0.54-0.7,1.23-1.05,2.05-1.05c0.36,0,0.7,0.07,1,0.2s0.53,0.3,0.68,0.5s0.26,0.43,0.32,0.69s0.09,0.63,0.09,1.11V41.77z
	 M61.54,42.18l1.88,0.23c0.03,0.22,0.1,0.37,0.22,0.45c0.16,0.12,0.4,0.18,0.74,0.18c0.43,0,0.75-0.06,0.97-0.19
	c0.14-0.09,0.25-0.22,0.33-0.42c0.05-0.14,0.08-0.39,0.08-0.76v-0.91c-0.49,0.67-1.11,1.01-1.86,1.01c-0.84,0-1.5-0.35-1.99-1.06
	c-0.38-0.56-0.57-1.25-0.57-2.09c0-1.04,0.25-1.84,0.75-2.39s1.13-0.83,1.87-0.83c0.77,0,1.4,0.34,1.9,1.01v-0.87h1.54v5.58
	c0,0.73-0.06,1.28-0.18,1.65s-0.29,0.65-0.51,0.86s-0.51,0.37-0.88,0.49s-0.83,0.18-1.39,0.18c-1.05,0-1.8-0.18-2.24-0.54
	s-0.66-0.82-0.66-1.37C61.53,42.33,61.53,42.26,61.54,42.18z M63.01,38.53c0,0.66,0.13,1.14,0.38,1.45s0.57,0.46,0.95,0.46
	c0.4,0,0.74-0.16,1.02-0.47s0.42-0.78,0.42-1.4c0-0.64-0.13-1.12-0.4-1.44s-0.6-0.47-1.01-0.47c-0.39,0-0.72,0.15-0.98,0.46
	S63.01,37.9,63.01,38.53z M83.92,41.77v-0.93c-0.23,0.33-0.52,0.59-0.89,0.79s-0.76,0.29-1.17,0.29c-0.42,0-0.79-0.09-1.12-0.28
	s-0.57-0.44-0.72-0.77s-0.22-0.79-0.22-1.38v-3.94h1.65v2.86c0,0.88,0.03,1.41,0.09,1.61s0.17,0.35,0.33,0.47s0.36,0.17,0.61,0.17
	c0.28,0,0.53-0.08,0.76-0.23s0.38-0.35,0.46-0.57s0.12-0.79,0.12-1.68v-2.62h1.65v6.22H83.92z M86.57,40l1.65-0.25
	c0.07,0.32,0.21,0.56,0.43,0.73s0.52,0.25,0.9,0.25c0.43,0,0.75-0.08,0.96-0.23c0.14-0.11,0.22-0.26,0.22-0.44
	c0-0.12-0.04-0.23-0.12-0.31c-0.08-0.08-0.27-0.15-0.55-0.22c-1.33-0.29-2.17-0.56-2.53-0.8c-0.49-0.34-0.74-0.8-0.74-1.4
	c0-0.54,0.21-0.99,0.64-1.36s1.09-0.55,1.98-0.55c0.85,0,1.48,0.14,1.9,0.42s0.7,0.69,0.86,1.23l-1.55,0.29
	c-0.07-0.24-0.19-0.43-0.38-0.56s-0.45-0.19-0.79-0.19c-0.43,0-0.74,0.06-0.93,0.18c-0.12,0.09-0.19,0.2-0.19,0.33
	c0,0.12,0.05,0.22,0.16,0.3c0.15,0.11,0.66,0.26,1.54,0.46s1.49,0.44,1.84,0.73c0.34,0.29,0.52,0.7,0.52,1.22
	c0,0.57-0.24,1.06-0.71,1.47s-1.18,0.62-2.12,0.62c-0.85,0-1.52-0.17-2.01-0.52S86.72,40.59,86.57,40z M97.43,39.79l1.64,0.28
	c-0.21,0.6-0.54,1.06-1,1.37s-1.02,0.47-1.71,0.47c-1.08,0-1.88-0.35-2.4-1.06c-0.41-0.57-0.62-1.28-0.62-2.14
	c0-1.03,0.27-1.84,0.81-2.42s1.22-0.88,2.04-0.88c0.93,0,1.66,0.31,2.19,0.92s0.79,1.55,0.77,2.81h-4.12
	c0.01,0.49,0.14,0.87,0.4,1.14s0.57,0.41,0.95,0.41c0.26,0,0.47-0.07,0.65-0.21S97.34,40.11,97.43,39.79z M97.52,38.13
	c-0.01-0.48-0.13-0.84-0.37-1.09s-0.52-0.37-0.86-0.37c-0.36,0-0.66,0.13-0.89,0.39s-0.35,0.62-0.35,1.07H97.52z M102.08,41.77
	h-1.65v-6.22h1.53v0.88c0.26-0.42,0.5-0.69,0.71-0.83s0.45-0.2,0.71-0.2c0.38,0,0.74,0.1,1.08,0.31l-0.51,1.44
	c-0.28-0.18-0.54-0.27-0.77-0.27c-0.23,0-0.43,0.06-0.59,0.19s-0.29,0.36-0.38,0.69s-0.14,1.03-0.14,2.09V41.77z M104.59,40
	l1.65-0.25c0.07,0.32,0.21,0.56,0.43,0.73s0.52,0.25,0.9,0.25c0.43,0,0.75-0.08,0.96-0.23c0.14-0.11,0.22-0.26,0.22-0.44
	c0-0.12-0.04-0.23-0.12-0.31c-0.08-0.08-0.27-0.15-0.55-0.22c-1.33-0.29-2.17-0.56-2.53-0.8c-0.49-0.34-0.74-0.8-0.74-1.4
	c0-0.54,0.21-0.99,0.64-1.36s1.09-0.55,1.98-0.55c0.85,0,1.48,0.14,1.9,0.42s0.7,0.69,0.86,1.23l-1.55,0.29
	c-0.07-0.24-0.19-0.43-0.38-0.56s-0.45-0.19-0.79-0.19c-0.43,0-0.74,0.06-0.93,0.18c-0.12,0.09-0.19,0.2-0.19,0.33
	c0,0.12,0.05,0.22,0.16,0.3c0.15,0.11,0.66,0.26,1.54,0.46s1.49,0.44,1.84,0.73c0.34,0.29,0.52,0.7,0.52,1.22
	c0,0.57-0.24,1.06-0.71,1.47s-1.18,0.62-2.12,0.62c-0.85,0-1.52-0.17-2.01-0.52S104.74,40.59,104.59,40z M125.5,35.55v1.31h-1.12
	v2.51c0,0.51,0.01,0.8,0.03,0.89s0.07,0.15,0.15,0.21s0.17,0.08,0.28,0.08c0.15,0,0.37-0.05,0.66-0.16l0.14,1.28
	c-0.38,0.16-0.82,0.25-1.3,0.25c-0.3,0-0.56-0.05-0.8-0.15s-0.41-0.23-0.52-0.39s-0.19-0.37-0.23-0.64
	c-0.04-0.19-0.05-0.58-0.05-1.16v-2.71h-0.76v-1.31h0.76v-1.24l1.65-0.96v2.2H125.5z M126.26,38.57c0-0.55,0.13-1.08,0.4-1.59
	s0.65-0.9,1.15-1.17s1.05-0.4,1.66-0.4c0.94,0,1.71,0.31,2.31,0.92s0.9,1.38,0.9,2.32c0,0.94-0.3,1.72-0.91,2.34
	s-1.37,0.93-2.29,0.93c-0.57,0-1.11-0.13-1.63-0.39s-0.91-0.64-1.18-1.13S126.26,39.29,126.26,38.57z M127.95,38.66
	c0,0.62,0.15,1.09,0.44,1.42s0.65,0.49,1.08,0.49s0.79-0.16,1.08-0.49s0.44-0.8,0.44-1.43c0-0.61-0.15-1.08-0.44-1.41
	s-0.65-0.49-1.08-0.49s-0.79,0.16-1.08,0.49S127.95,38.04,127.95,38.66z M150.44,41.77h-1.65V38.6c0-0.67-0.04-1.11-0.11-1.3
	s-0.18-0.35-0.34-0.46s-0.35-0.16-0.57-0.16c-0.29,0-0.54,0.08-0.77,0.23s-0.38,0.36-0.47,0.62s-0.13,0.73-0.13,1.43v2.82h-1.65
	v-6.22h1.53v0.91c0.54-0.7,1.23-1.05,2.05-1.05c0.36,0,0.7,0.07,1,0.2s0.53,0.3,0.68,0.5s0.26,0.43,0.32,0.69s0.09,0.63,0.09,1.11
	V41.77z M155.71,39.79l1.64,0.28c-0.21,0.6-0.54,1.06-1,1.37s-1.02,0.47-1.71,0.47c-1.08,0-1.88-0.35-2.4-1.06
	c-0.41-0.57-0.62-1.28-0.62-2.14c0-1.03,0.27-1.84,0.81-2.42s1.22-0.88,2.04-0.88c0.93,0,1.66,0.31,2.19,0.92s0.79,1.55,0.77,2.81
	h-4.12c0.01,0.49,0.14,0.87,0.4,1.14s0.57,0.41,0.95,0.41c0.26,0,0.47-0.07,0.65-0.21S155.62,40.11,155.71,39.79z M155.8,38.13
	c-0.01-0.48-0.13-0.84-0.37-1.09s-0.52-0.37-0.86-0.37c-0.36,0-0.66,0.13-0.89,0.39s-0.35,0.62-0.35,1.07H155.8z M160.01,37.45
	l-1.49-0.27c0.17-0.6,0.46-1.05,0.87-1.34s1.02-0.43,1.83-0.43c0.73,0,1.28,0.09,1.64,0.26s0.61,0.39,0.76,0.66s0.22,0.76,0.22,1.47
	l-0.02,1.92c0,0.55,0.03,0.95,0.08,1.21s0.15,0.54,0.3,0.83h-1.63c-0.04-0.11-0.1-0.27-0.16-0.49c-0.03-0.1-0.05-0.16-0.06-0.19
	c-0.28,0.27-0.58,0.48-0.9,0.62s-0.66,0.21-1.03,0.21c-0.64,0-1.15-0.17-1.51-0.52s-0.55-0.79-0.55-1.32c0-0.35,0.08-0.67,0.25-0.94
	s0.4-0.49,0.71-0.63s0.74-0.27,1.31-0.38c0.77-0.14,1.3-0.28,1.6-0.4v-0.16c0-0.32-0.08-0.54-0.23-0.68s-0.45-0.2-0.88-0.2
	c-0.29,0-0.52,0.06-0.69,0.17S160.11,37.16,160.01,37.45z M162.21,38.78c-0.21,0.07-0.54,0.15-1,0.25s-0.76,0.19-0.9,0.29
	c-0.21,0.15-0.32,0.35-0.32,0.58c0,0.23,0.09,0.43,0.26,0.6s0.39,0.25,0.66,0.25c0.3,0,0.58-0.1,0.85-0.29
	c0.2-0.15,0.33-0.33,0.39-0.54c0.04-0.14,0.06-0.41,0.06-0.8V38.78z M167.03,41.77h-1.65v-6.22h1.53v0.88
	c0.26-0.42,0.5-0.69,0.71-0.83s0.45-0.2,0.71-0.2c0.38,0,0.74,0.1,1.08,0.31l-0.51,1.44c-0.28-0.18-0.54-0.27-0.77-0.27
	c-0.23,0-0.43,0.06-0.59,0.19s-0.29,0.36-0.38,0.69s-0.14,1.03-0.14,2.09V41.77z M170.05,41.77v-8.59h1.65v3.09
	c0.51-0.58,1.11-0.87,1.8-0.87c0.76,0,1.38,0.27,1.88,0.82s0.74,1.34,0.74,2.36c0,1.06-0.25,1.88-0.76,2.46s-1.12,0.86-1.84,0.86
	c-0.36,0-0.71-0.09-1.05-0.27s-0.64-0.44-0.89-0.79v0.91H170.05z M171.69,38.53c0,0.64,0.1,1.12,0.3,1.43
	c0.29,0.44,0.66,0.66,1.14,0.66c0.36,0,0.67-0.16,0.93-0.47s0.38-0.8,0.38-1.47c0-0.71-0.13-1.22-0.39-1.54s-0.59-0.47-0.99-0.47
	c-0.39,0-0.72,0.15-0.98,0.46S171.69,37.9,171.69,38.53z M176.67,35.55h1.75l1.49,4.42l1.45-4.42h1.71l-2.2,5.99l-0.39,1.08
	c-0.14,0.36-0.28,0.64-0.41,0.83s-0.28,0.35-0.45,0.47s-0.38,0.21-0.63,0.28s-0.53,0.1-0.84,0.1c-0.32,0-0.63-0.03-0.93-0.1
	l-0.15-1.29c0.26,0.05,0.49,0.08,0.7,0.08c0.38,0,0.67-0.11,0.85-0.34s0.32-0.51,0.42-0.86L176.67,35.55z M196.16,37.45l-1.49-0.27
	c0.17-0.6,0.46-1.05,0.87-1.34s1.02-0.43,1.83-0.43c0.73,0,1.28,0.09,1.64,0.26s0.61,0.39,0.76,0.66s0.22,0.76,0.22,1.47l-0.02,1.92
	c0,0.55,0.03,0.95,0.08,1.21s0.15,0.54,0.3,0.83h-1.63c-0.04-0.11-0.1-0.27-0.16-0.49c-0.03-0.1-0.05-0.16-0.06-0.19
	c-0.28,0.27-0.58,0.48-0.9,0.62s-0.66,0.21-1.03,0.21c-0.64,0-1.15-0.17-1.51-0.52s-0.55-0.79-0.55-1.32c0-0.35,0.08-0.67,0.25-0.94
	s0.4-0.49,0.71-0.63s0.74-0.27,1.31-0.38c0.77-0.14,1.3-0.28,1.6-0.4v-0.16c0-0.32-0.08-0.54-0.23-0.68s-0.45-0.2-0.88-0.2
	c-0.29,0-0.52,0.06-0.69,0.17S196.26,37.16,196.16,37.45z M198.37,38.78c-0.21,0.07-0.54,0.15-1,0.25s-0.76,0.19-0.9,0.29
	c-0.21,0.15-0.32,0.35-0.32,0.58c0,0.23,0.09,0.43,0.26,0.6s0.39,0.25,0.66,0.25c0.3,0,0.58-0.1,0.85-0.29
	c0.2-0.15,0.33-0.33,0.39-0.54c0.04-0.14,0.06-0.41,0.06-0.8V38.78z M203.18,41.77h-1.65v-6.22h1.53v0.88
	c0.26-0.42,0.5-0.69,0.71-0.83s0.45-0.2,0.71-0.2c0.38,0,0.74,0.1,1.08,0.31l-0.51,1.44c-0.28-0.18-0.54-0.27-0.77-0.27
	c-0.23,0-0.43,0.06-0.59,0.19s-0.29,0.36-0.38,0.69s-0.14,1.03-0.14,2.09V41.77z M209.13,35.55v1.31H208v2.51
	c0,0.51,0.01,0.8,0.03,0.89s0.07,0.15,0.15,0.21s0.17,0.08,0.28,0.08c0.15,0,0.37-0.05,0.66-0.16l0.14,1.28
	c-0.38,0.16-0.82,0.25-1.3,0.25c-0.3,0-0.56-0.05-0.8-0.15s-0.41-0.23-0.52-0.39s-0.19-0.37-0.23-0.64
	c-0.04-0.19-0.05-0.58-0.05-1.16v-2.71h-0.76v-1.31h0.76v-1.24l1.65-0.96v2.2H209.13z M210.27,34.71v-1.52h1.65v1.52H210.27z
	 M210.27,41.77v-6.22h1.65v6.22H210.27z M213.03,40l1.65-0.25c0.07,0.32,0.21,0.56,0.43,0.73s0.52,0.25,0.9,0.25
	c0.43,0,0.75-0.08,0.96-0.23c0.14-0.11,0.22-0.26,0.22-0.44c0-0.12-0.04-0.23-0.12-0.31c-0.08-0.08-0.27-0.15-0.55-0.22
	c-1.33-0.29-2.17-0.56-2.53-0.8c-0.49-0.34-0.74-0.8-0.74-1.4c0-0.54,0.21-0.99,0.64-1.36s1.09-0.55,1.98-0.55
	c0.85,0,1.48,0.14,1.9,0.42s0.7,0.69,0.86,1.23l-1.55,0.29c-0.07-0.24-0.19-0.43-0.38-0.56s-0.45-0.19-0.79-0.19
	c-0.43,0-0.74,0.06-0.93,0.18c-0.12,0.09-0.19,0.2-0.19,0.33c0,0.12,0.05,0.22,0.16,0.3c0.15,0.11,0.66,0.26,1.54,0.46
	s1.49,0.44,1.84,0.73c0.34,0.29,0.52,0.7,0.52,1.22c0,0.57-0.24,1.06-0.71,1.47s-1.18,0.62-2.12,0.62c-0.85,0-1.52-0.17-2.01-0.52
	S213.18,40.59,213.03,40z M223.13,35.55v1.31h-1.12v2.51c0,0.51,0.01,0.8,0.03,0.89s0.07,0.15,0.15,0.21s0.17,0.08,0.28,0.08
	c0.15,0,0.37-0.05,0.66-0.16l0.14,1.28c-0.38,0.16-0.82,0.25-1.3,0.25c-0.3,0-0.56-0.05-0.8-0.15s-0.41-0.23-0.52-0.39
	s-0.19-0.37-0.23-0.64c-0.04-0.19-0.05-0.58-0.05-1.16v-2.71h-0.76v-1.31h0.76v-1.24l1.65-0.96v2.2H223.13z M223.7,40l1.65-0.25
	c0.07,0.32,0.21,0.56,0.43,0.73s0.52,0.25,0.9,0.25c0.43,0,0.75-0.08,0.96-0.23c0.14-0.11,0.22-0.26,0.22-0.44
	c0-0.12-0.04-0.23-0.12-0.31c-0.08-0.08-0.27-0.15-0.55-0.22c-1.33-0.29-2.17-0.56-2.53-0.8c-0.49-0.34-0.74-0.8-0.74-1.4
	c0-0.54,0.21-0.99,0.64-1.36s1.09-0.55,1.98-0.55c0.85,0,1.48,0.14,1.9,0.42s0.7,0.69,0.86,1.23l-1.55,0.29
	c-0.07-0.24-0.19-0.43-0.38-0.56s-0.45-0.19-0.79-0.19c-0.43,0-0.74,0.06-0.93,0.18c-0.12,0.09-0.19,0.2-0.19,0.33
	c0,0.12,0.05,0.22,0.16,0.3c0.15,0.11,0.66,0.26,1.54,0.46s1.49,0.44,1.84,0.73c0.34,0.29,0.52,0.7,0.52,1.22
	c0,0.57-0.24,1.06-0.71,1.47s-1.18,0.62-2.12,0.62c-0.85,0-1.52-0.17-2.01-0.52S223.85,40.59,223.7,40z M242.98,37.45l-1.49-0.27
	c0.17-0.6,0.46-1.05,0.87-1.34s1.02-0.43,1.83-0.43c0.73,0,1.28,0.09,1.64,0.26s0.61,0.39,0.76,0.66s0.22,0.76,0.22,1.47l-0.02,1.92
	c0,0.55,0.03,0.95,0.08,1.21s0.15,0.54,0.3,0.83h-1.63c-0.04-0.11-0.1-0.27-0.16-0.49c-0.03-0.1-0.05-0.16-0.06-0.19
	c-0.28,0.27-0.58,0.48-0.9,0.62s-0.66,0.21-1.03,0.21c-0.64,0-1.15-0.17-1.51-0.52s-0.55-0.79-0.55-1.32c0-0.35,0.08-0.67,0.25-0.94
	s0.4-0.49,0.71-0.63s0.74-0.27,1.31-0.38c0.77-0.14,1.3-0.28,1.6-0.4v-0.16c0-0.32-0.08-0.54-0.23-0.68s-0.45-0.2-0.88-0.2
	c-0.29,0-0.52,0.06-0.69,0.17S243.08,37.16,242.98,37.45z M245.19,38.78c-0.21,0.07-0.54,0.15-1,0.25s-0.76,0.19-0.9,0.29
	c-0.21,0.15-0.32,0.35-0.32,0.58c0,0.23,0.09,0.43,0.26,0.6s0.39,0.25,0.66,0.25c0.3,0,0.58-0.1,0.85-0.29
	c0.2-0.15,0.33-0.33,0.39-0.54c0.04-0.14,0.06-0.41,0.06-0.8V38.78z M254.09,41.77h-1.65V38.6c0-0.67-0.04-1.11-0.11-1.3
	s-0.18-0.35-0.34-0.46s-0.35-0.16-0.57-0.16c-0.29,0-0.54,0.08-0.77,0.23s-0.38,0.36-0.47,0.62s-0.13,0.73-0.13,1.43v2.82h-1.65
	v-6.22h1.53v0.91c0.54-0.7,1.23-1.05,2.05-1.05c0.36,0,0.7,0.07,1,0.2s0.53,0.3,0.68,0.5s0.26,0.43,0.32,0.69s0.09,0.63,0.09,1.11
	V41.77z M261.46,41.77h-1.53v-0.91c-0.25,0.36-0.55,0.62-0.9,0.79s-0.69,0.26-1.05,0.26c-0.71,0-1.33-0.29-1.84-0.86
	c-0.51-0.58-0.76-1.38-0.76-2.41c0-1.05,0.25-1.86,0.74-2.41c0.5-0.55,1.12-0.82,1.88-0.82c0.7,0,1.3,0.29,1.8,0.87v-3.09h1.65
	V41.77z M257.07,38.53c0,0.66,0.09,1.14,0.28,1.44c0.27,0.43,0.64,0.64,1.11,0.64c0.38,0,0.7-0.16,0.97-0.48s0.4-0.8,0.4-1.44
	c0-0.71-0.13-1.23-0.39-1.54s-0.59-0.47-0.99-0.47c-0.39,0-0.72,0.16-0.98,0.47S257.07,37.91,257.07,38.53z M4.44,54.4l1.65-0.25
	c0.07,0.32,0.21,0.56,0.43,0.73s0.52,0.25,0.9,0.25c0.43,0,0.75-0.08,0.96-0.23c0.14-0.11,0.22-0.26,0.22-0.44
	c0-0.12-0.04-0.23-0.12-0.31c-0.08-0.08-0.27-0.15-0.55-0.22c-1.33-0.29-2.17-0.56-2.53-0.8c-0.49-0.34-0.74-0.8-0.74-1.4
	c0-0.54,0.21-0.99,0.64-1.36s1.09-0.55,1.98-0.55c0.85,0,1.48,0.14,1.9,0.42s0.7,0.69,0.86,1.23l-1.55,0.29
	c-0.07-0.24-0.19-0.43-0.38-0.56s-0.45-0.19-0.79-0.19c-0.43,0-0.74,0.06-0.93,0.18c-0.12,0.09-0.19,0.2-0.19,0.33
	c0,0.12,0.05,0.22,0.16,0.3c0.15,0.11,0.66,0.26,1.54,0.46S9.39,52.71,9.73,53c0.34,0.29,0.52,0.7,0.52,1.22
	c0,0.57-0.24,1.06-0.71,1.47s-1.18,0.62-2.12,0.62c-0.85,0-1.52-0.17-2.01-0.52S4.59,54.99,4.44,54.4z M13.33,47.58v3.16
	c0.53-0.62,1.17-0.93,1.9-0.93c0.38,0,0.72,0.07,1.03,0.21s0.53,0.32,0.69,0.54s0.26,0.46,0.32,0.73s0.08,0.68,0.08,1.24v3.65H15.7
	v-3.29c0-0.65-0.03-1.07-0.09-1.24s-0.17-0.32-0.33-0.42s-0.36-0.16-0.59-0.16c-0.27,0-0.52,0.07-0.73,0.2s-0.37,0.33-0.47,0.6
	s-0.15,0.66-0.15,1.19v3.12h-1.65v-8.59H13.33z M18.64,52.97c0-0.55,0.13-1.08,0.4-1.59s0.65-0.9,1.15-1.17s1.05-0.4,1.66-0.4
	c0.94,0,1.71,0.31,2.31,0.92s0.9,1.38,0.9,2.32c0,0.94-0.3,1.72-0.91,2.34s-1.37,0.93-2.29,0.93c-0.57,0-1.11-0.13-1.63-0.39
	s-0.91-0.64-1.18-1.13S18.64,53.69,18.64,52.97z M20.33,53.06c0,0.62,0.15,1.09,0.44,1.42s0.65,0.49,1.08,0.49s0.79-0.16,1.08-0.49
	s0.44-0.8,0.44-1.43c0-0.61-0.15-1.08-0.44-1.41s-0.65-0.49-1.08-0.49s-0.79,0.16-1.08,0.49S20.33,52.44,20.33,53.06z M27.51,56.17
	l-1.97-6.22h1.6l1.17,4.08l1.07-4.08h1.59L32,54.03l1.19-4.08h1.62l-2,6.22h-1.58l-1.07-4l-1.05,4H27.51z M35.1,54.4l1.65-0.25
	c0.07,0.32,0.21,0.56,0.43,0.73s0.52,0.25,0.9,0.25c0.43,0,0.75-0.08,0.96-0.23c0.14-0.11,0.22-0.26,0.22-0.44
	c0-0.12-0.04-0.23-0.12-0.31c-0.08-0.08-0.27-0.15-0.55-0.22c-1.33-0.29-2.17-0.56-2.53-0.8c-0.49-0.34-0.74-0.8-0.74-1.4
	c0-0.54,0.21-0.99,0.64-1.36s1.09-0.55,1.98-0.55c0.85,0,1.48,0.14,1.9,0.42s0.7,0.69,0.86,1.23l-1.55,0.29
	c-0.07-0.24-0.19-0.43-0.38-0.56s-0.45-0.19-0.79-0.19c-0.43,0-0.74,0.06-0.93,0.18c-0.12,0.09-0.19,0.2-0.19,0.33
	c0,0.12,0.05,0.22,0.16,0.3c0.15,0.11,0.66,0.26,1.54,0.46s1.49,0.44,1.84,0.73c0.34,0.29,0.52,0.7,0.52,1.22
	c0,0.57-0.24,1.06-0.71,1.47s-1.18,0.62-2.12,0.62c-0.85,0-1.52-0.17-2.01-0.52S35.26,54.99,35.1,54.4z M42.36,56.17v-1.65H44v1.65
	H42.36z"/>
</svg>
